<svg xmlns="http://www.w3.org/2000/svg" xmlns:xlink="http://www.w3.org/1999/xlink" contentStyleType="text/css" data-diagram-type="ACTIVITY" height="1178px" preserveAspectRatio="none" style="width:1289px;height:1178px;background:#FFFFFF;" version="1.1" viewBox="0 0 1289 1178" width="1289px" zoomAndPan="magnify"><?plantuml 1.2026.4beta2?><defs/><g><g class="title" data-source-line="7"><text fill="#000000" font-family="sans-serif" font-size="14" font-weight="700" lengthAdjust="spacing" textLength="222.8721" x="532.2964" y="32.9951">ML Service Activity Diagram</text></g><ellipse cx="647.0039" cy="62.2969" fill="#222222" rx="10" ry="10" style="stroke:#222222;stroke-width:1;"/><rect fill="#E0FFFF" height="47.9375" rx="12.5" ry="12.5" style="stroke:#000000;stroke-width:0.5;" width="156.2305" x="568.8887" y="92.2969"/><text fill="#000000" font-family="sans-serif" font-size="12" lengthAdjust="spacing" textLength="136.2305" x="578.8887" y="113.4355">Receive cycle/features</text><text fill="#000000" font-family="sans-serif" font-size="12" lengthAdjust="spacing" textLength="66.4629" x="578.8887" y="127.4043">from MQTT</text><rect fill="#E0FFFF" height="33.9688" rx="12.5" ry="12.5" style="stroke:#000000;stroke-width:0.5;" width="247.0918" x="523.458" y="160.2344"/><text fill="#000000" font-family="sans-serif" font-size="12" lengthAdjust="spacing" textLength="227.0918" x="533.458" y="181.373">Extract {6 Engineered ratio features}</text><rect fill="#555555" height="6" rx="2.5" ry="2.5" style="stroke:#555555;stroke-width:1;" width="1253.4648" x="16" y="214.2031"/><rect fill="#E0FFFF" height="33.9688" rx="12.5" ry="12.5" style="stroke:#000000;stroke-width:0.5;" width="116.9316" x="211.7197" y="294.1719"/><text fill="#000000" font-family="sans-serif" font-size="12" lengthAdjust="spacing" textLength="96.9316" x="221.7197" y="315.3105">IO Health Check</text><rect fill="#E0FFFF" height="47.9375" rx="12.5" ry="12.5" style="stroke:#000000;stroke-width:0.5;" width="158.4336" x="190.9688" y="363.1406"/><text fill="#000000" font-family="sans-serif" font-size="12" lengthAdjust="spacing" textLength="138.4336" x="200.9688" y="384.2793">Validate sensor signals</text><text fill="#000000" font-family="sans-serif" font-size="12" lengthAdjust="spacing" textLength="130.4355" x="200.9688" y="398.248">and PWM consistency</text><polygon fill="#E0FFFF" points="220.8708,446.0781,319.5002,446.0781,331.5002,458.0781,319.5002,470.0781,220.8708,470.0781,208.8708,458.0781,220.8708,446.0781" style="stroke:#000000;stroke-width:0.5;"/><text fill="#000000" font-family="sans-serif" font-size="11" lengthAdjust="spacing" textLength="98.6294" x="220.8708" y="461.8862">IO fault detected?</text><text fill="#000000" font-family="sans-serif" font-size="11" lengthAdjust="spacing" textLength="19.0083" x="189.8625" y="455.4839">yes</text><text fill="#000000" font-family="sans-serif" font-size="11" lengthAdjust="spacing" textLength="13.7017" x="331.5002" y="455.4839">no</text><rect fill="#E0FFFF" height="33.9688" rx="12.5" ry="12.5" style="stroke:#000000;stroke-width:0.5;" width="193.543" x="59.9424" y="480.0781"/><text fill="#000000" font-family="sans-serif" font-size="12" lengthAdjust="spacing" textLength="173.543" x="69.9424" y="501.2168">Publish io_health = CRITICAL</text><rect fill="#E0FFFF" height="33.9688" rx="12.5" ry="12.5" style="stroke:#000000;stroke-width:0.5;" width="246.998" x="33.2148" y="549.0469"/><text fill="#000000" font-family="sans-serif" font-size="12" lengthAdjust="spacing" textLength="226.998" x="43.2148" y="570.1855">Publish decision = EMERGENCY_STOP</text><rect fill="#E0FFFF" height="47.9375" rx="12.5" ry="12.5" style="stroke:#000000;stroke-width:0.5;" width="257.4277" x="28" y="618.0156"/><text fill="#000000" font-family="sans-serif" font-size="12" lengthAdjust="spacing" textLength="237.4277" x="38" y="639.1543">Publish command = EMERGENCY_STOP</text><text fill="#000000" font-family="sans-serif" font-size="12" lengthAdjust="spacing" textLength="125.7949" x="38" y="653.123">to RevPi via backend</text><ellipse cx="156.7139" cy="705.2148" fill="none" rx="11" ry="11" style="stroke:#222222;stroke-width:1;"/><ellipse cx="156.7139" cy="705.2148" fill="#222222" rx="6" ry="6" style="stroke:#222222;stroke-width:1;"/><rect fill="#E0FFFF" height="33.9688" rx="12.5" ry="12.5" style="stroke:#000000;stroke-width:0.5;" width="156.459" x="305.4277" y="480.0781"/><text fill="#000000" font-family="sans-serif" font-size="12" lengthAdjust="spacing" textLength="136.459" x="315.4277" y="501.2168">Publish io_health = OK</text><rect fill="#E0FFFF" height="33.9688" rx="12.5" ry="12.5" style="stroke:#000000;stroke-width:0.5;" width="184.9824" x="896.4902" y="240.2031"/><text fill="#000000" font-family="sans-serif" font-size="12" lengthAdjust="spacing" textLength="164.9824" x="906.4902" y="261.3418">Z-Score Anomaly Detection</text><polygon fill="#E0FFFF" points="935.2195,300.4336,1042.7434,300.4336,1054.7434,313.2383,1042.7434,326.043,935.2195,326.043,923.2195,313.2383,935.2195,300.4336" style="stroke:#000000;stroke-width:0.5;"/><text fill="#000000" font-family="sans-serif" font-size="11" lengthAdjust="spacing" textLength="107.5239" x="935.2195" y="310.644">Warmup complete?</text><text fill="#000000" font-family="sans-serif" font-size="11" lengthAdjust="spacing" textLength="75.1685" x="935.2195" y="323.4487">(&gt;= 5 cycles)</text><text fill="#000000" font-family="sans-serif" font-size="11" lengthAdjust="spacing" textLength="19.0083" x="904.2112" y="310.644">yes</text><text fill="#000000" font-family="sans-serif" font-size="11" lengthAdjust="spacing" textLength="13.7017" x="1054.7434" y="310.644">no</text><rect fill="#E0FFFF" height="47.9375" rx="12.5" ry="12.5" style="stroke:#000000;stroke-width:0.5;" width="163.9414" x="712.9805" y="336.043"/><text fill="#000000" font-family="sans-serif" font-size="12" lengthAdjust="spacing" textLength="143.9414" x="722.9805" y="357.1816">Compute robust z-score</text><text fill="#000000" font-family="sans-serif" font-size="12" lengthAdjust="spacing" textLength="96.6563" x="722.9805" y="371.1504">for each feature</text><rect fill="#E0FFFF" height="47.9375" rx="12.5" ry="12.5" style="stroke:#000000;stroke-width:0.5;" width="160.4727" x="714.7148" y="418.9805"/><text fill="#000000" font-family="sans-serif" font-size="12" lengthAdjust="spacing" textLength="109.2715" x="724.7148" y="440.1191">Calculate mean of</text><text fill="#000000" font-family="sans-serif" font-size="12" lengthAdjust="spacing" textLength="140.4727" x="724.7148" y="454.0879">top-K absolute z-scores</text><polygon fill="#E0FFFF" points="521.8867,526.918,679.1416,526.918,691.1416,538.918,679.1416,550.918,521.8867,550.918,509.8867,538.918,521.8867,526.918" style="stroke:#000000;stroke-width:0.5;"/><text fill="#000000" font-family="sans-serif" font-size="11" lengthAdjust="spacing" textLength="19.0083" x="604.5142" y="561.1284">yes</text><text fill="#000000" font-family="sans-serif" font-size="11" lengthAdjust="spacing" textLength="157.2549" x="521.8867" y="542.7261">score &gt; CRITICAL threshold?</text><rect fill="#E0FFFF" height="33.9688" rx="12.5" ry="12.5" style="stroke:#000000;stroke-width:0.5;" width="165.6055" x="517.7114" y="583.7227"/><text fill="#000000" font-family="sans-serif" font-size="12" lengthAdjust="spacing" textLength="145.6055" x="527.7114" y="604.8613">ML behavior = CRITICAL</text><polygon fill="#E0FFFF" points="723.1416,526.918,884.8008,526.918,896.8008,538.918,884.8008,550.918,723.1416,550.918,711.1416,538.918,723.1416,526.918" style="stroke:#000000;stroke-width:0.5;"/><text fill="#000000" font-family="sans-serif" font-size="11" lengthAdjust="spacing" textLength="19.0083" x="807.9712" y="561.1284">yes</text><text fill="#000000" font-family="sans-serif" font-size="11" lengthAdjust="spacing" textLength="161.6592" x="723.1416" y="542.7261">score &gt; WARNING threshold?</text><text fill="#000000" font-family="sans-serif" font-size="11" lengthAdjust="spacing" textLength="13.7017" x="896.8008" y="536.3237">no</text><rect fill="#E0FFFF" height="33.9688" rx="12.5" ry="12.5" style="stroke:#000000;stroke-width:0.5;" width="170.4102" x="718.7661" y="583.7227"/><text fill="#000000" font-family="sans-serif" font-size="12" lengthAdjust="spacing" textLength="150.4102" x="728.7661" y="604.8613">ML behavior = WARNING</text><rect fill="#E0FFFF" height="33.9688" rx="12.5" ry="12.5" style="stroke:#000000;stroke-width:0.5;" width="163.2148" x="916.8008" y="580.3203"/><text fill="#000000" font-family="sans-serif" font-size="12" lengthAdjust="spacing" textLength="143.2148" x="926.8008" y="601.459">ML behavior = NORMAL</text><rect fill="#E0FFFF" height="33.9688" rx="12.5" ry="12.5" style="stroke:#000000;stroke-width:0.5;" width="165.9922" x="1091.4727" y="336.043"/><text fill="#000000" font-family="sans-serif" font-size="12" lengthAdjust="spacing" textLength="145.9922" x="1101.4727" y="357.1816">ML behavior = WARMUP</text><polygon fill="#E0FFFF" points="988.9814,691.9531,1000.9814,703.9531,988.9814,715.9531,976.9814,703.9531,988.9814,691.9531" style="stroke:#000000;stroke-width:0.5;"/><rect fill="#E0FFFF" height="33.9688" rx="12.5" ry="12.5" style="stroke:#000000;stroke-width:0.5;" width="140.4922" x="918.7354" y="736.2148"/><text fill="#000000" font-family="sans-serif" font-size="12" lengthAdjust="spacing" textLength="120.4922" x="928.7354" y="757.3535">Publish ml_behavior</text><rect fill="#555555" height="6" rx="2.5" ry="2.5" style="stroke:#555555;stroke-width:1;" width="1253.4648" x="16" y="790.1836"/><rect fill="#E0FFFF" height="47.9375" rx="12.5" ry="12.5" style="stroke:#000000;stroke-width:0.5;" width="167.3691" x="563.3193" y="816.1836"/><text fill="#000000" font-family="sans-serif" font-size="12" lengthAdjust="spacing" textLength="96.0293" x="573.3193" y="837.3223">Decision Engine</text><text fill="#000000" font-family="sans-serif" font-size="12" lengthAdjust="spacing" textLength="147.3691" x="573.3193" y="851.291">combine IO + ML results</text><polygon fill="#E0FFFF" points="320.0354,884.1211,442.1687,884.1211,454.1687,896.1211,442.1687,908.1211,320.0354,908.1211,308.0354,896.1211,320.0354,884.1211" style="stroke:#000000;stroke-width:0.5;"/><text fill="#000000" font-family="sans-serif" font-size="11" lengthAdjust="spacing" textLength="19.0083" x="385.1021" y="918.3315">yes</text><text fill="#000000" font-family="sans-serif" font-size="11" lengthAdjust="spacing" textLength="122.1333" x="320.0354" y="899.9292">IO health = CRITICAL?</text><rect fill="#E0FFFF" height="33.9688" rx="12.5" ry="12.5" style="stroke:#000000;stroke-width:0.5;" width="201.8223" x="280.1909" y="940.9258"/><text fill="#000000" font-family="sans-serif" font-size="12" lengthAdjust="spacing" textLength="181.8223" x="290.1909" y="962.0645">Decision = EMERGENCY_STOP</text><polygon fill="#E0FFFF" points="514.0132,884.1211,653.3232,884.1211,665.3232,896.1211,653.3232,908.1211,514.0132,908.1211,502.0132,896.1211,514.0132,884.1211" style="stroke:#000000;stroke-width:0.5;"/><text fill="#000000" font-family="sans-serif" font-size="11" lengthAdjust="spacing" textLength="19.0083" x="587.6682" y="918.3315">yes</text><text fill="#000000" font-family="sans-serif" font-size="11" lengthAdjust="spacing" textLength="139.3101" x="514.0132" y="899.9292">ML behavior = CRITICAL?</text><rect fill="#E0FFFF" height="33.9688" rx="12.5" ry="12.5" style="stroke:#000000;stroke-width:0.5;" width="143.1699" x="512.0833" y="940.9258"/><text fill="#000000" font-family="sans-serif" font-size="12" lengthAdjust="spacing" textLength="123.1699" x="522.0833" y="962.0645">Decision = CRITICAL</text><polygon fill="#E0FFFF" points="697.3232,884.1211,841.0376,884.1211,853.0376,896.1211,841.0376,908.1211,697.3232,908.1211,685.3232,896.1211,697.3232,884.1211" style="stroke:#000000;stroke-width:0.5;"/><text fill="#000000" font-family="sans-serif" font-size="11" lengthAdjust="spacing" textLength="19.0083" x="773.1804" y="918.3315">yes</text><text fill="#000000" font-family="sans-serif" font-size="11" lengthAdjust="spacing" textLength="143.7144" x="697.3232" y="899.9292">ML behavior = WARNING?</text><text fill="#000000" font-family="sans-serif" font-size="11" lengthAdjust="spacing" textLength="13.7017" x="853.0376" y="893.5269">no</text><rect fill="#E0FFFF" height="33.9688" rx="12.5" ry="12.5" style="stroke:#000000;stroke-width:0.5;" width="147.9746" x="695.1931" y="940.9258"/><text fill="#000000" font-family="sans-serif" font-size="12" lengthAdjust="spacing" textLength="127.9746" x="705.1931" y="962.0645">Decision = WARNING</text><rect fill="#E0FFFF" height="33.9688" rx="12.5" ry="12.5" style="stroke:#000000;stroke-width:0.5;" width="140.7793" x="873.0376" y="937.5234"/><text fill="#000000" font-family="sans-serif" font-size="12" lengthAdjust="spacing" textLength="120.7793" x="883.0376" y="958.6621">Decision = NORMAL</text><rect fill="#E0FFFF" height="33.9688" rx="12.5" ry="12.5" style="stroke:#000000;stroke-width:0.5;" width="149.6738" x="572.167" y="1014.8945"/><text fill="#000000" font-family="sans-serif" font-size="12" lengthAdjust="spacing" textLength="129.6738" x="582.167" y="1036.0332">Publish decision topic</text><rect fill="#E0FFFF" height="47.9375" rx="12.5" ry="12.5" style="stroke:#000000;stroke-width:0.5;" width="167.3691" x="563.3193" y="1068.8633"/><text fill="#000000" font-family="sans-serif" font-size="12" lengthAdjust="spacing" textLength="100.0723" x="573.3193" y="1090.002">ChatGPT Service</text><text fill="#000000" font-family="sans-serif" font-size="12" lengthAdjust="spacing" textLength="147.3691" x="573.3193" y="1103.9707">generates interpretation</text><ellipse cx="647.0039" cy="1147.8008" fill="none" rx="11" ry="11" style="stroke:#222222;stroke-width:1;"/><ellipse cx="647.0039" cy="1147.8008" fill="#222222" rx="6" ry="6" style="stroke:#222222;stroke-width:1;"/><line style="stroke:#181818;stroke-width:1;" x1="647.0039" x2="647.0039" y1="72.2969" y2="92.2969"/><polygon fill="#181818" points="643.0039,82.2969,647.0039,92.2969,651.0039,82.2969,647.0039,86.2969" style="stroke:#181818;stroke-width:1;"/><line style="stroke:#181818;stroke-width:1;" x1="647.0039" x2="647.0039" y1="140.2344" y2="160.2344"/><polygon fill="#181818" points="643.0039,150.2344,647.0039,160.2344,651.0039,150.2344,647.0039,154.2344" style="stroke:#181818;stroke-width:1;"/><line style="stroke:#181818;stroke-width:1;" x1="270.1855" x2="270.1855" y1="328.1406" y2="363.1406"/><polygon fill="#181818" points="266.1855,353.1406,270.1855,363.1406,274.1855,353.1406,270.1855,357.1406" style="stroke:#181818;stroke-width:1;"/><line style="stroke:#181818;stroke-width:1;" x1="156.7139" x2="156.7139" y1="514.0469" y2="549.0469"/><polygon fill="#181818" points="152.7139,539.0469,156.7139,549.0469,160.7139,539.0469,156.7139,543.0469" style="stroke:#181818;stroke-width:1;"/><line style="stroke:#181818;stroke-width:1;" x1="156.7139" x2="156.7139" y1="583.0156" y2="618.0156"/><polygon fill="#181818" points="152.7139,608.0156,156.7139,618.0156,160.7139,608.0156,156.7139,612.0156" style="stroke:#181818;stroke-width:1;"/><line style="stroke:#181818;stroke-width:1;" x1="156.7139" x2="156.7139" y1="665.9531" y2="694.2148"/><polygon fill="#181818" points="152.7139,684.2148,156.7139,694.2148,160.7139,684.2148,156.7139,688.2148" style="stroke:#181818;stroke-width:1;"/><line style="stroke:#181818;stroke-width:1;" x1="208.8708" x2="156.7139" y1="458.0781" y2="458.0781"/><line style="stroke:#181818;stroke-width:1;" x1="156.7139" x2="156.7139" y1="458.0781" y2="480.0781"/><polygon fill="#181818" points="152.7139,470.0781,156.7139,480.0781,160.7139,470.0781,156.7139,474.0781" style="stroke:#181818;stroke-width:1;"/><line style="stroke:#181818;stroke-width:1;" x1="331.5002" x2="383.6572" y1="458.0781" y2="458.0781"/><line style="stroke:#181818;stroke-width:1;" x1="383.6572" x2="383.6572" y1="458.0781" y2="480.0781"/><polygon fill="#181818" points="379.6572,470.0781,383.6572,480.0781,387.6572,470.0781,383.6572,474.0781" style="stroke:#181818;stroke-width:1;"/><line style="stroke:#181818;stroke-width:1;" x1="383.6572" x2="383.6572" y1="514.0469" y2="721.2148"/><line style="stroke:#181818;stroke-width:1;" x1="383.6572" x2="270.1855" y1="721.2148" y2="721.2148"/><line style="stroke:#181818;stroke-width:1;" x1="270.1855" x2="270.1855" y1="721.2148" y2="790.1836"/><polygon fill="#181818" points="266.1855,780.1836,270.1855,790.1836,274.1855,780.1836,270.1855,784.1836" style="stroke:#181818;stroke-width:1;"/><line style="stroke:#181818;stroke-width:1;" x1="270.1855" x2="270.1855" y1="411.0781" y2="446.0781"/><polygon fill="#181818" points="266.1855,436.0781,270.1855,446.0781,274.1855,436.0781,270.1855,440.0781" style="stroke:#181818;stroke-width:1;"/><line style="stroke:#181818;stroke-width:1;" x1="794.9512" x2="794.9512" y1="383.9805" y2="418.9805"/><polygon fill="#181818" points="790.9512,408.9805,794.9512,418.9805,798.9512,408.9805,794.9512,412.9805" style="stroke:#181818;stroke-width:1;"/><line style="stroke:#181818;stroke-width:1;" x1="600.5142" x2="600.5142" y1="550.918" y2="583.7227"/><polygon fill="#181818" points="596.5142,573.7227,600.5142,583.7227,604.5142,573.7227,600.5142,577.7227" style="stroke:#181818;stroke-width:1;"/><line style="stroke:#181818;stroke-width:1;" x1="600.5142" x2="600.5142" y1="617.6914" y2="685.9531"/><polygon fill="#181818" points="596.5142,675.9531,600.5142,685.9531,604.5142,675.9531,600.5142,679.9531" style="stroke:#181818;stroke-width:1;"/><line style="stroke:#181818;stroke-width:1;" x1="803.9712" x2="803.9712" y1="550.918" y2="583.7227"/><polygon fill="#181818" points="799.9712,573.7227,803.9712,583.7227,807.9712,573.7227,803.9712,577.7227" style="stroke:#181818;stroke-width:1;"/><line style="stroke:#181818;stroke-width:1;" x1="803.9712" x2="803.9712" y1="617.6914" y2="685.9531"/><polygon fill="#181818" points="799.9712,675.9531,803.9712,685.9531,807.9712,675.9531,803.9712,679.9531" style="stroke:#181818;stroke-width:1;"/><line style="stroke:#181818;stroke-width:1;" x1="691.1416" x2="711.1416" y1="538.918" y2="538.918"/><polygon fill="#181818" points="701.1416,534.918,711.1416,538.918,701.1416,542.918,705.1416,538.918" style="stroke:#181818;stroke-width:1;"/><line style="stroke:#181818;stroke-width:1;" x1="794.9512" x2="794.9512" y1="466.918" y2="501.918"/><line style="stroke:#181818;stroke-width:1;" x1="794.9512" x2="600.5142" y1="501.918" y2="501.918"/><line style="stroke:#181818;stroke-width:1;" x1="600.5142" x2="600.5142" y1="501.918" y2="526.918"/><polygon fill="#181818" points="596.5142,516.918,600.5142,526.918,604.5142,516.918,600.5142,520.918" style="stroke:#181818;stroke-width:1;"/><line style="stroke:#181818;stroke-width:1;" x1="896.8008" x2="998.4082" y1="538.918" y2="538.918"/><line style="stroke:#181818;stroke-width:1;" x1="998.4082" x2="998.4082" y1="538.918" y2="580.3203"/><polygon fill="#181818" points="994.4082,570.3203,998.4082,580.3203,1002.4082,570.3203,998.4082,574.3203" style="stroke:#181818;stroke-width:1;"/><line style="stroke:#181818;stroke-width:1;" x1="998.4082" x2="998.4082" y1="614.2891" y2="685.9531"/><polygon fill="#181818" points="994.4082,675.9531,998.4082,685.9531,1002.4082,675.9531,998.4082,679.9531" style="stroke:#181818;stroke-width:1;"/><line style="stroke:#181818;stroke-width:1;" x1="600.5142" x2="998.4082" y1="685.9531" y2="685.9531"/><line style="stroke:#181818;stroke-width:1;" x1="923.2195" x2="794.9512" y1="313.2383" y2="313.2383"/><line style="stroke:#181818;stroke-width:1;" x1="794.9512" x2="794.9512" y1="313.2383" y2="336.043"/><polygon fill="#181818" points="790.9512,326.043,794.9512,336.043,798.9512,326.043,794.9512,330.043" style="stroke:#181818;stroke-width:1;"/><line style="stroke:#181818;stroke-width:1;" x1="1054.7434" x2="1174.4688" y1="313.2383" y2="313.2383"/><line style="stroke:#181818;stroke-width:1;" x1="1174.4688" x2="1174.4688" y1="313.2383" y2="336.043"/><polygon fill="#181818" points="1170.4688,326.043,1174.4688,336.043,1178.4688,326.043,1174.4688,330.043" style="stroke:#181818;stroke-width:1;"/><line style="stroke:#181818;stroke-width:1;" x1="794.9512" x2="794.9512" y1="685.9531" y2="703.9531"/><line style="stroke:#181818;stroke-width:1;" x1="794.9512" x2="976.9814" y1="703.9531" y2="703.9531"/><polygon fill="#181818" points="966.9814,699.9531,976.9814,703.9531,966.9814,707.9531,970.9814,703.9531" style="stroke:#181818;stroke-width:1;"/><line style="stroke:#181818;stroke-width:1;" x1="1174.4688" x2="1174.4688" y1="370.0117" y2="703.9531"/><line style="stroke:#181818;stroke-width:1;" x1="1174.4688" x2="1000.9814" y1="703.9531" y2="703.9531"/><polygon fill="#181818" points="1010.9814,699.9531,1000.9814,703.9531,1010.9814,707.9531,1006.9814,703.9531" style="stroke:#181818;stroke-width:1;"/><line style="stroke:#181818;stroke-width:1;" x1="988.9814" x2="988.9814" y1="274.1719" y2="300.4336"/><polygon fill="#181818" points="984.9814,290.4336,988.9814,300.4336,992.9814,290.4336,988.9814,294.4336" style="stroke:#181818;stroke-width:1;"/><line style="stroke:#181818;stroke-width:1;" x1="988.9814" x2="988.9814" y1="715.9531" y2="736.2148"/><polygon fill="#181818" points="984.9814,726.2148,988.9814,736.2148,992.9814,726.2148,988.9814,730.2148" style="stroke:#181818;stroke-width:1;"/><line style="stroke:#181818;stroke-width:1;" x1="270.1855" x2="270.1855" y1="220.2031" y2="294.1719"/><polygon fill="#181818" points="266.1855,284.1719,270.1855,294.1719,274.1855,284.1719,270.1855,288.1719" style="stroke:#181818;stroke-width:1;"/><line style="stroke:#181818;stroke-width:1;" x1="988.9814" x2="988.9814" y1="220.2031" y2="240.2031"/><polygon fill="#181818" points="984.9814,230.2031,988.9814,240.2031,992.9814,230.2031,988.9814,234.2031" style="stroke:#181818;stroke-width:1;"/><line style="stroke:#181818;stroke-width:1;" x1="988.9814" x2="988.9814" y1="770.1836" y2="790.1836"/><polygon fill="#181818" points="984.9814,780.1836,988.9814,790.1836,992.9814,780.1836,988.9814,784.1836" style="stroke:#181818;stroke-width:1;"/><line style="stroke:#181818;stroke-width:1;" x1="647.0039" x2="647.0039" y1="194.2031" y2="214.2031"/><polygon fill="#181818" points="643.0039,204.2031,647.0039,214.2031,651.0039,204.2031,647.0039,208.2031" style="stroke:#181818;stroke-width:1;"/><line style="stroke:#181818;stroke-width:1;" x1="647.0039" x2="647.0039" y1="796.1836" y2="816.1836"/><polygon fill="#181818" points="643.0039,806.1836,647.0039,816.1836,651.0039,806.1836,647.0039,810.1836" style="stroke:#181818;stroke-width:1;"/><line style="stroke:#181818;stroke-width:1;" x1="381.1021" x2="381.1021" y1="908.1211" y2="940.9258"/><polygon fill="#181818" points="377.1021,930.9258,381.1021,940.9258,385.1021,930.9258,381.1021,934.9258" style="stroke:#181818;stroke-width:1;"/><line style="stroke:#181818;stroke-width:1;" x1="381.1021" x2="381.1021" y1="974.8945" y2="994.8945"/><polygon fill="#181818" points="377.1021,984.8945,381.1021,994.8945,385.1021,984.8945,381.1021,988.8945" style="stroke:#181818;stroke-width:1;"/><line style="stroke:#181818;stroke-width:1;" x1="583.6682" x2="583.6682" y1="908.1211" y2="940.9258"/><polygon fill="#181818" points="579.6682,930.9258,583.6682,940.9258,587.6682,930.9258,583.6682,934.9258" style="stroke:#181818;stroke-width:1;"/><line style="stroke:#181818;stroke-width:1;" x1="583.6682" x2="583.6682" y1="974.8945" y2="994.8945"/><polygon fill="#181818" points="579.6682,984.8945,583.6682,994.8945,587.6682,984.8945,583.6682,988.8945" style="stroke:#181818;stroke-width:1;"/><line style="stroke:#181818;stroke-width:1;" x1="769.1804" x2="769.1804" y1="908.1211" y2="940.9258"/><polygon fill="#181818" points="765.1804,930.9258,769.1804,940.9258,773.1804,930.9258,769.1804,934.9258" style="stroke:#181818;stroke-width:1;"/><line style="stroke:#181818;stroke-width:1;" x1="769.1804" x2="769.1804" y1="974.8945" y2="994.8945"/><polygon fill="#181818" points="765.1804,984.8945,769.1804,994.8945,773.1804,984.8945,769.1804,988.8945" style="stroke:#181818;stroke-width:1;"/><line style="stroke:#181818;stroke-width:1;" x1="454.1687" x2="502.0132" y1="896.1211" y2="896.1211"/><polygon fill="#181818" points="492.0132,892.1211,502.0132,896.1211,492.0132,900.1211,496.0132,896.1211" style="stroke:#181818;stroke-width:1;"/><line style="stroke:#181818;stroke-width:1;" x1="665.3232" x2="685.3232" y1="896.1211" y2="896.1211"/><polygon fill="#181818" points="675.3232,892.1211,685.3232,896.1211,675.3232,900.1211,679.3232,896.1211" style="stroke:#181818;stroke-width:1;"/><line style="stroke:#181818;stroke-width:1;" x1="647.0039" x2="647.0039" y1="864.1211" y2="869.1211"/><line style="stroke:#181818;stroke-width:1;" x1="647.0039" x2="381.1021" y1="869.1211" y2="869.1211"/><line style="stroke:#181818;stroke-width:1;" x1="381.1021" x2="381.1021" y1="869.1211" y2="884.1211"/><polygon fill="#181818" points="377.1021,874.1211,381.1021,884.1211,385.1021,874.1211,381.1021,878.1211" style="stroke:#181818;stroke-width:1;"/><line style="stroke:#181818;stroke-width:1;" x1="853.0376" x2="943.4272" y1="896.1211" y2="896.1211"/><line style="stroke:#181818;stroke-width:1;" x1="943.4272" x2="943.4272" y1="896.1211" y2="937.5234"/><polygon fill="#181818" points="939.4272,927.5234,943.4272,937.5234,947.4272,927.5234,943.4272,931.5234" style="stroke:#181818;stroke-width:1;"/><line style="stroke:#181818;stroke-width:1;" x1="943.4272" x2="943.4272" y1="971.4922" y2="994.8945"/><polygon fill="#181818" points="939.4272,984.8945,943.4272,994.8945,947.4272,984.8945,943.4272,988.8945" style="stroke:#181818;stroke-width:1;"/><line style="stroke:#181818;stroke-width:1;" x1="381.1021" x2="943.4272" y1="994.8945" y2="994.8945"/><line style="stroke:#181818;stroke-width:1;" x1="647.0039" x2="647.0039" y1="994.8945" y2="1014.8945"/><polygon fill="#181818" points="643.0039,1004.8945,647.0039,1014.8945,651.0039,1004.8945,647.0039,1008.8945" style="stroke:#181818;stroke-width:1;"/><line style="stroke:#181818;stroke-width:1;" x1="647.0039" x2="647.0039" y1="1048.8633" y2="1068.8633"/><polygon fill="#181818" points="643.0039,1058.8633,647.0039,1068.8633,651.0039,1058.8633,647.0039,1062.8633" style="stroke:#181818;stroke-width:1;"/><line style="stroke:#181818;stroke-width:1;" x1="647.0039" x2="647.0039" y1="1116.8008" y2="1136.8008"/><polygon fill="#181818" points="643.0039,1126.8008,647.0039,1136.8008,651.0039,1126.8008,647.0039,1130.8008" style="stroke:#181818;stroke-width:1;"/><?plantuml-src dLHDRzf04BtlhvWZKHNrr1v0IPGuA4K97oMqKIiaDAp7zehrBjfTqz8e_xrZ6_CHI2gLa_6yUJD-Rz_wXJ9BT9Z37EKYTROmSMIrTV0hKu64tzPH1hLIOGtF0lXtymh-eD8iH6iqTTMwc5nTkT4C5Iz211KqGVy17icjb2IuRYXl5QOyGmWVq0KXscEIf5O4SYqrVKm8G-78JqtYR0xzhvD9Xq7Tty7nLl3y6RecLOR8KGmEWxBGjBmmCB5kKMtLxWtX2w4E6KGPoKMdVliTjOen47WodXVsAZMeUHgQ64PFVP3MUEK36RckMrG2BUPAiD01OWea0yLNPn0oCj1Qap-hO1Nxg9XhvJDGTfRLioyW6lSclUZweNCCYqaghwnXLBVV7Tzr1z6FsUDaE3g1bJRFonrVGwScM1ZJQgHWfR1obaoy8_31Bgi_f3r1ozX_h3kyhtkPH2MLd80fgjhgzi_pHsaTksbiZfhDhFJWJzXfzOGkBvRblalDrQkfQLrUmAVQNdzsMhY8qGMxukoyy07-dFjo39y1jeXGPet7Uy94g6MXIojpGWCsAPLOdjy3phtL9Tc6nU-QolsgTt2vzONtOKnczHkcLiFu8CyfmvNYVKvPMegxJ_vqFHxq1dV_mRtfFAG-zEr4rs0uxX_iKxdtXkr70_lVHlkc7voDNCyQS4Tm7Qg4YVPjStRhE4uD6pxd1-2iV2Y3pn_EYM7nnIP1HuaurcJ7Ufo8HkBJLhpFjJFiDCj6zFT9jiuSIheFQMoeTHJ7GUSJgcHvdqKPXhlHfBaUfoObGtoTaGTb0hcbeu1ri4GPuRy0?></g></svg>