<svg xmlns="http://www.w3.org/2000/svg" xmlns:xlink="http://www.w3.org/1999/xlink" contentStyleType="text/css" data-diagram-type="DESCRIPTION" height="1155px" preserveAspectRatio="none" style="width:1293px;height:1155px;background:#FFFFFF;" version="1.1" viewBox="0 0 1293 1155" width="1293px" zoomAndPan="magnify"><?plantuml 1.2026.4beta2?><defs/><g><g class="title" data-source-line="7"><text fill="#000000" font-family="sans-serif" font-size="14" font-weight="700" lengthAdjust="spacing" textLength="230.3164" x="527.8418" y="22.9951">System Deployment Diagram</text></g><!--cluster fischertechnik\nPunching Machine--><g class="cluster" data-qualified-name="fischertechnik.nPunching Machine" data-source-line="9" id="ent0002"><polygon fill="#FFFFE0" points="575,53.2969,585,43.2969,984,43.2969,984,151.5869,974,161.5869,575,161.5869,575,53.2969" style="stroke:#FF8C00;stroke-width:1;"/><line style="stroke:#FF8C00;stroke-width:1;" x1="974" x2="984" y1="53.2969" y2="43.2969"/><line style="stroke:#FF8C00;stroke-width:1;" x1="575" x2="974" y1="53.2969" y2="53.2969"/><line style="stroke:#FF8C00;stroke-width:1;" x1="974" x2="974" y1="53.2969" y2="161.5869"/><text fill="#000000" font-family="sans-serif" font-size="14" font-weight="700" lengthAdjust="spacing" textLength="112.417" x="719.2915" y="69.292">fischertechnik</text><text fill="#000000" font-family="sans-serif" font-size="14" font-weight="700" lengthAdjust="spacing" textLength="144.0264" x="703.4868" y="85.5889">Punching Machine</text></g><!--cluster Revolution Pi Core 3+\n(Industrial Controller)--><g class="cluster" data-qualified-name="Revolution Pi Core 3..n.Industrial Controller." data-source-line="14" id="ent0005"><polygon fill="#FFFFE0" points="534,220.5869,544,210.5869,782,210.5869,782,474.7769,772,484.7769,534,484.7769,534,220.5869" style="stroke:#FF8C00;stroke-width:1;"/><line style="stroke:#FF8C00;stroke-width:1;" x1="772" x2="782" y1="220.5869" y2="210.5869"/><line style="stroke:#FF8C00;stroke-width:1;" x1="534" x2="772" y1="220.5869" y2="220.5869"/><line style="stroke:#FF8C00;stroke-width:1;" x1="772" x2="772" y1="220.5869" y2="484.7769"/><text fill="#000000" font-family="sans-serif" font-size="14" font-weight="700" lengthAdjust="spacing" textLength="172.3066" x="567.8467" y="236.582">Revolution Pi Core 3+</text><text fill="#000000" font-family="sans-serif" font-size="14" font-weight="700" lengthAdjust="spacing" textLength="172.8809" x="567.5596" y="252.8789">(Industrial Controller)</text></g><!--cluster Host PC\n(Local Wi-Fi Hotspot)--><g class="cluster" data-qualified-name="Host PC.n.Local Wi-Fi Hotspot." data-source-line="19" id="ent0008"><polygon fill="#FFFFE0" points="222,543.7769,232,533.7769,992,533.7769,992,1120.9669,982,1130.9669,222,1130.9669,222,543.7769" style="stroke:#FF8C00;stroke-width:1;"/><line style="stroke:#FF8C00;stroke-width:1;" x1="982" x2="992" y1="543.7769" y2="533.7769"/><line style="stroke:#FF8C00;stroke-width:1;" x1="222" x2="982" y1="543.7769" y2="543.7769"/><line style="stroke:#FF8C00;stroke-width:1;" x1="982" x2="982" y1="543.7769" y2="1130.9669"/><text fill="#000000" font-family="sans-serif" font-size="14" font-weight="700" lengthAdjust="spacing" textLength="61.7695" x="572.1152" y="559.772">Host PC</text><text fill="#000000" font-family="sans-serif" font-size="14" font-weight="700" lengthAdjust="spacing" textLength="166.7354" x="519.6323" y="576.0689">(Local Wi-Fi Hotspot)</text></g><!--cluster Docker Compose Stack--><g class="cluster" data-qualified-name="Host PC.n.Local Wi-Fi Hotspot..Docker Compose Stack" data-source-line="20" id="ent0009"><polygon fill="#FFFFE0" points="246,607.7769,256,597.7769,968,597.7769,968,1096.9669,958,1106.9669,246,1106.9669,246,607.7769" style="stroke:#FF8C00;stroke-width:1;"/><line style="stroke:#FF8C00;stroke-width:1;" x1="958" x2="968" y1="607.7769" y2="597.7769"/><line style="stroke:#FF8C00;stroke-width:1;" x1="246" x2="958" y1="607.7769" y2="607.7769"/><line style="stroke:#FF8C00;stroke-width:1;" x1="958" x2="958" y1="607.7769" y2="1106.9669"/><text fill="#000000" font-family="sans-serif" font-size="14" font-weight="700" lengthAdjust="spacing" textLength="180.7764" x="512.6118" y="623.772">Docker Compose Stack</text></g><!--cluster emqx container--><g class="cluster" data-qualified-name="Host PC.n.Local Wi-Fi Hotspot..Docker Compose Stack.emqx container" data-source-line="21" id="ent0010"><polygon fill="#FFFFE0" points="559,655.7769,569,645.7769,758,645.7769,758,738.0769,748,748.0769,559,748.0769,559,655.7769" style="stroke:#FF8C00;stroke-width:1;"/><line style="stroke:#FF8C00;stroke-width:1;" x1="748" x2="758" y1="655.7769" y2="645.7769"/><line style="stroke:#FF8C00;stroke-width:1;" x1="559" x2="748" y1="655.7769" y2="655.7769"/><line style="stroke:#FF8C00;stroke-width:1;" x1="748" x2="748" y1="655.7769" y2="748.0769"/><text fill="#000000" font-family="sans-serif" font-size="14" font-weight="700" lengthAdjust="spacing" textLength="123.1973" x="592.9014" y="671.772">emqx container</text></g><!--cluster backend container--><g class="cluster" data-qualified-name="Host PC.n.Local Wi-Fi Hotspot..Docker Compose Stack.backend container" data-source-line="24" id="ent0012"><polygon fill="#FFFFE0" points="270,823.0769,280,813.0769,876,813.0769,876,905.3769,866,915.3769,270,915.3769,270,823.0769" style="stroke:#FF8C00;stroke-width:1;"/><line style="stroke:#FF8C00;stroke-width:1;" x1="866" x2="876" y1="823.0769" y2="813.0769"/><line style="stroke:#FF8C00;stroke-width:1;" x1="270" x2="866" y1="823.0769" y2="823.0769"/><line style="stroke:#FF8C00;stroke-width:1;" x1="866" x2="866" y1="823.0769" y2="915.3769"/><text fill="#000000" font-family="sans-serif" font-size="14" font-weight="700" lengthAdjust="spacing" textLength="146.624" x="495.688" y="839.072">backend container</text></g><!--cluster influxdb container--><g class="cluster" data-qualified-name="Host PC.n.Local Wi-Fi Hotspot..Docker Compose Stack.influxdb container" data-source-line="29" id="ent0016"><polygon fill="#FFFFE0" points="270,982.5169,280,972.5169,490,972.5169,490,1064.8169,480,1074.8169,270,1074.8169,270,982.5169" style="stroke:#FF8C00;stroke-width:1;"/><line style="stroke:#FF8C00;stroke-width:1;" x1="480" x2="490" y1="982.5169" y2="972.5169"/><line style="stroke:#FF8C00;stroke-width:1;" x1="270" x2="480" y1="982.5169" y2="982.5169"/><line style="stroke:#FF8C00;stroke-width:1;" x1="480" x2="480" y1="982.5169" y2="1074.8169"/><text fill="#000000" font-family="sans-serif" font-size="14" font-weight="700" lengthAdjust="spacing" textLength="144.7578" x="303.6211" y="998.512">influxdb container</text></g><!--cluster frontend container--><g class="cluster" data-qualified-name="Host PC.n.Local Wi-Fi Hotspot..Docker Compose Stack.frontend container" data-source-line="32" id="ent0018"><polygon fill="#FFFFE0" points="720,974.3769,730,964.3769,944,964.3769,944,1072.9669,934,1082.9669,720,1082.9669,720,974.3769" style="stroke:#FF8C00;stroke-width:1;"/><line style="stroke:#FF8C00;stroke-width:1;" x1="934" x2="944" y1="974.3769" y2="964.3769"/><line style="stroke:#FF8C00;stroke-width:1;" x1="720" x2="934" y1="974.3769" y2="974.3769"/><line style="stroke:#FF8C00;stroke-width:1;" x1="934" x2="934" y1="974.3769" y2="1082.9669"/><text fill="#000000" font-family="sans-serif" font-size="14" font-weight="700" lengthAdjust="spacing" textLength="148.8184" x="753.5908" y="990.372">frontend container</text></g><!--cluster sqlite volume--><g class="cluster" data-qualified-name="Host PC.n.Local Wi-Fi Hotspot..Docker Compose Stack.sqlite volume" data-source-line="35" id="ent0020"><polygon fill="#FFFFE0" points="514,982.5169,524,972.5169,696,972.5169,696,1064.8169,686,1074.8169,514,1074.8169,514,982.5169" style="stroke:#FF8C00;stroke-width:1;"/><line style="stroke:#FF8C00;stroke-width:1;" x1="686" x2="696" y1="982.5169" y2="972.5169"/><line style="stroke:#FF8C00;stroke-width:1;" x1="514" x2="686" y1="982.5169" y2="982.5169"/><line style="stroke:#FF8C00;stroke-width:1;" x1="686" x2="686" y1="982.5169" y2="1074.8169"/><text fill="#000000" font-family="sans-serif" font-size="14" font-weight="700" lengthAdjust="spacing" textLength="106.6064" x="547.6968" y="998.512">sqlite volume</text></g><!--cluster Operator\nWorkstation / Browser--><g class="cluster" data-qualified-name="Operator.nWorkstation . Browser" data-source-line="41" id="ent0022"><polygon fill="#FFFFE0" points="1016,807.0769,1026,797.0769,1268,797.0769,1268,905.3769,1258,915.3769,1016,915.3769,1016,807.0769" style="stroke:#FF8C00;stroke-width:1;"/><line style="stroke:#FF8C00;stroke-width:1;" x1="1258" x2="1268" y1="807.0769" y2="797.0769"/><line style="stroke:#FF8C00;stroke-width:1;" x1="1016" x2="1258" y1="807.0769" y2="807.0769"/><line style="stroke:#FF8C00;stroke-width:1;" x1="1258" x2="1258" y1="807.0769" y2="915.3769"/><text fill="#000000" font-family="sans-serif" font-size="14" font-weight="700" lengthAdjust="spacing" textLength="70.9844" x="1102.5078" y="823.072">Operator</text><text fill="#000000" font-family="sans-serif" font-size="14" font-weight="700" lengthAdjust="spacing" textLength="176.5449" x="1049.7275" y="839.3689">Workstation / Browser</text></g><!--cluster OpenAI Cloud--><g class="cluster" data-qualified-name="OpenAI Cloud" data-source-line="45" id="ent0024"><polygon fill="#FFFFE0" points="16,982.5169,26,972.5169,198,972.5169,198,1064.8169,188,1074.8169,16,1074.8169,16,982.5169" style="stroke:#FF8C00;stroke-width:1;"/><line style="stroke:#FF8C00;stroke-width:1;" x1="188" x2="198" y1="982.5169" y2="972.5169"/><line style="stroke:#FF8C00;stroke-width:1;" x1="16" x2="188" y1="982.5169" y2="982.5169"/><line style="stroke:#FF8C00;stroke-width:1;" x1="188" x2="188" y1="982.5169" y2="1074.8169"/><text fill="#000000" font-family="sans-serif" font-size="14" font-weight="700" lengthAdjust="spacing" textLength="106.9824" x="49.5088" y="998.512">OpenAI Cloud</text></g><!--entity Sensors I1..I4--><g class="entity" data-qualified-name="fischertechnik.nPunching Machine.Sensors I1..I4" data-source-line="10" id="ent0003"><rect fill="#F1F1F1" height="46.2969" rx="2.5" ry="2.5" style="stroke:#181818;stroke-width:0.5;" width="134.7051" x="590.65" y="99.2969"/><rect fill="#F1F1F1" height="10" style="stroke:#181818;stroke-width:0.5;" width="15" x="705.3551" y="104.2969"/><rect fill="#F1F1F1" height="2" style="stroke:#181818;stroke-width:0.5;" width="4" x="703.3551" y="106.2969"/><rect fill="#F1F1F1" height="2" style="stroke:#181818;stroke-width:0.5;" width="4" x="703.3551" y="110.2969"/><text fill="#000000" font-family="sans-serif" font-size="14" lengthAdjust="spacing" textLength="94.7051" x="605.65" y="132.292">Sensors I1..I4</text></g><!--entity Actuators PWM1..PWM4--><g class="entity" data-qualified-name="fischertechnik.nPunching Machine.Actuators PWM1..PWM4" data-source-line="11" id="ent0004"><rect fill="#F1F1F1" height="46.2969" rx="2.5" ry="2.5" style="stroke:#181818;stroke-width:0.5;" width="207.2139" x="760.39" y="99.2969"/><rect fill="#F1F1F1" height="10" style="stroke:#181818;stroke-width:0.5;" width="15" x="947.6039" y="104.2969"/><rect fill="#F1F1F1" height="2" style="stroke:#181818;stroke-width:0.5;" width="4" x="945.6039" y="106.2969"/><rect fill="#F1F1F1" height="2" style="stroke:#181818;stroke-width:0.5;" width="4" x="945.6039" y="110.2969"/><text fill="#000000" font-family="sans-serif" font-size="14" lengthAdjust="spacing" textLength="167.2139" x="775.39" y="132.292">Actuators PWM1..PWM4</text></g><!--entity RevPiRT--><g class="entity" data-qualified-name="Revolution Pi Core 3..n.Industrial Controller..RevPiRT" data-source-line="15" id="ent0006"><rect fill="#F1F1F1" height="62.5938" rx="2.5" ry="2.5" style="stroke:#181818;stroke-width:0.5;" width="142.5117" x="586.74" y="406.1869"/><rect fill="#F1F1F1" height="10" style="stroke:#181818;stroke-width:0.5;" width="15" x="709.2517" y="411.1869"/><rect fill="#F1F1F1" height="2" style="stroke:#181818;stroke-width:0.5;" width="4" x="707.2517" y="413.1869"/><rect fill="#F1F1F1" height="2" style="stroke:#181818;stroke-width:0.5;" width="4" x="707.2517" y="417.1869"/><text fill="#000000" font-family="sans-serif" font-size="14" lengthAdjust="spacing" textLength="102.5117" x="601.74" y="439.182">RevPi Runtime</text><text fill="#000000" font-family="sans-serif" font-size="14" lengthAdjust="spacing" textLength="59.4521" x="601.74" y="455.4789">(Python)</text></g><!--entity DIO--><g class="entity" data-qualified-name="Revolution Pi Core 3..n.Industrial Controller..DIO" data-source-line="16" id="ent0007"><rect fill="#F1F1F1" height="62.5938" rx="2.5" ry="2.5" style="stroke:#181818;stroke-width:0.5;" width="161.9326" x="577.03" y="266.5869"/><rect fill="#F1F1F1" height="10" style="stroke:#181818;stroke-width:0.5;" width="15" x="718.9626" y="271.5869"/><rect fill="#F1F1F1" height="2" style="stroke:#181818;stroke-width:0.5;" width="4" x="716.9626" y="273.5869"/><rect fill="#F1F1F1" height="2" style="stroke:#181818;stroke-width:0.5;" width="4" x="716.9626" y="277.5869"/><text fill="#000000" font-family="sans-serif" font-size="14" lengthAdjust="spacing" textLength="121.9326" x="592.03" y="299.582">Revolution Pi DIO</text><text fill="#000000" font-family="sans-serif" font-size="14" lengthAdjust="spacing" textLength="50.9072" x="592.03" y="315.8789">Module</text></g><!--entity EMQX Broker--><g class="entity" data-qualified-name="Host PC.n.Local Wi-Fi Hotspot..Docker Compose Stack.emqx container.EMQX Broker" data-source-line="22" id="ent0011"><rect fill="#F1F1F1" height="46.2969" rx="2.5" ry="2.5" style="stroke:#181818;stroke-width:0.5;" width="132.3877" x="591.81" y="685.7769"/><rect fill="#F1F1F1" height="10" style="stroke:#181818;stroke-width:0.5;" width="15" x="704.1977" y="690.7769"/><rect fill="#F1F1F1" height="2" style="stroke:#181818;stroke-width:0.5;" width="4" x="702.1977" y="692.7769"/><rect fill="#F1F1F1" height="2" style="stroke:#181818;stroke-width:0.5;" width="4" x="702.1977" y="696.7769"/><text fill="#000000" font-family="sans-serif" font-size="14" lengthAdjust="spacing" textLength="92.3877" x="606.81" y="718.772">EMQX Broker</text></g><!--entity FastAPI App--><g class="entity" data-qualified-name="Host PC.n.Local Wi-Fi Hotspot..Docker Compose Stack.backend container.FastAPI App" data-source-line="25" id="ent0013"><rect fill="#F1F1F1" height="46.2969" rx="2.5" ry="2.5" style="stroke:#181818;stroke-width:0.5;" width="123.3643" x="531.32" y="853.0769"/><rect fill="#F1F1F1" height="10" style="stroke:#181818;stroke-width:0.5;" width="15" x="634.6843" y="858.0769"/><rect fill="#F1F1F1" height="2" style="stroke:#181818;stroke-width:0.5;" width="4" x="632.6843" y="860.0769"/><rect fill="#F1F1F1" height="2" style="stroke:#181818;stroke-width:0.5;" width="4" x="632.6843" y="864.0769"/><text fill="#000000" font-family="sans-serif" font-size="14" lengthAdjust="spacing" textLength="83.3643" x="546.32" y="886.072">FastAPI App</text></g><!--entity ML Service Thread--><g class="entity" data-qualified-name="Host PC.n.Local Wi-Fi Hotspot..Docker Compose Stack.backend container.ML Service Thread" data-source-line="26" id="ent0014"><rect fill="#F1F1F1" height="46.2969" rx="2.5" ry="2.5" style="stroke:#181818;stroke-width:0.5;" width="169.7803" x="690.11" y="853.0769"/><rect fill="#F1F1F1" height="10" style="stroke:#181818;stroke-width:0.5;" width="15" x="839.8903" y="858.0769"/><rect fill="#F1F1F1" height="2" style="stroke:#181818;stroke-width:0.5;" width="4" x="837.8903" y="860.0769"/><rect fill="#F1F1F1" height="2" style="stroke:#181818;stroke-width:0.5;" width="4" x="837.8903" y="864.0769"/><text fill="#000000" font-family="sans-serif" font-size="14" lengthAdjust="spacing" textLength="129.7803" x="705.11" y="886.072">ML Service Thread</text></g><!--entity ChatGPT Service Thread--><g class="entity" data-qualified-name="Host PC.n.Local Wi-Fi Hotspot..Docker Compose Stack.backend container.ChatGPT Service Thread" data-source-line="27" id="ent0015"><rect fill="#F1F1F1" height="46.2969" rx="2.5" ry="2.5" style="stroke:#181818;stroke-width:0.5;" width="210.4609" x="285.77" y="853.0769"/><rect fill="#F1F1F1" height="10" style="stroke:#181818;stroke-width:0.5;" width="15" x="476.2309" y="858.0769"/><rect fill="#F1F1F1" height="2" style="stroke:#181818;stroke-width:0.5;" width="4" x="474.2309" y="860.0769"/><rect fill="#F1F1F1" height="2" style="stroke:#181818;stroke-width:0.5;" width="4" x="474.2309" y="864.0769"/><text fill="#000000" font-family="sans-serif" font-size="14" lengthAdjust="spacing" textLength="170.4609" x="300.77" y="886.072">ChatGPT Service Thread</text></g><!--entity InfluxDB--><g class="entity" data-qualified-name="Host PC.n.Local Wi-Fi Hotspot..Docker Compose Stack.influxdb container.InfluxDB" data-source-line="30" id="ent0017"><rect fill="#F1F1F1" height="46.2969" rx="2.5" ry="2.5" style="stroke:#181818;stroke-width:0.5;" width="99.3633" x="374.32" y="1012.5169"/><rect fill="#F1F1F1" height="10" style="stroke:#181818;stroke-width:0.5;" width="15" x="453.6833" y="1017.5169"/><rect fill="#F1F1F1" height="2" style="stroke:#181818;stroke-width:0.5;" width="4" x="451.6833" y="1019.5169"/><rect fill="#F1F1F1" height="2" style="stroke:#181818;stroke-width:0.5;" width="4" x="451.6833" y="1023.5169"/><text fill="#000000" font-family="sans-serif" font-size="14" lengthAdjust="spacing" textLength="59.3633" x="389.32" y="1045.512">InfluxDB</text></g><!--entity React App\n(Nginx)--><g class="entity" data-qualified-name="Host PC.n.Local Wi-Fi Hotspot..Docker Compose Stack.frontend container.React App.n.Nginx." data-source-line="33" id="ent0019"><rect fill="#F1F1F1" height="62.5938" rx="2.5" ry="2.5" style="stroke:#181818;stroke-width:0.5;" width="111.9072" x="756.05" y="1004.3769"/><rect fill="#F1F1F1" height="10" style="stroke:#181818;stroke-width:0.5;" width="15" x="847.9572" y="1009.3769"/><rect fill="#F1F1F1" height="2" style="stroke:#181818;stroke-width:0.5;" width="4" x="845.9572" y="1011.3769"/><rect fill="#F1F1F1" height="2" style="stroke:#181818;stroke-width:0.5;" width="4" x="845.9572" y="1015.3769"/><text fill="#000000" font-family="sans-serif" font-size="14" lengthAdjust="spacing" textLength="71.9072" x="771.05" y="1037.372">React App</text><text fill="#000000" font-family="sans-serif" font-size="14" lengthAdjust="spacing" textLength="51.3311" x="771.05" y="1053.6689">(Nginx)</text></g><!--entity SQLite DB--><g class="entity" data-qualified-name="Host PC.n.Local Wi-Fi Hotspot..Docker Compose Stack.sqlite volume.SQLite DB" data-source-line="36" id="ent0021"><rect fill="#F1F1F1" height="46.2969" rx="2.5" ry="2.5" style="stroke:#181818;stroke-width:0.5;" width="110.5332" x="533.73" y="1012.5169"/><rect fill="#F1F1F1" height="10" style="stroke:#181818;stroke-width:0.5;" width="15" x="624.2632" y="1017.5169"/><rect fill="#F1F1F1" height="2" style="stroke:#181818;stroke-width:0.5;" width="4" x="622.2632" y="1019.5169"/><rect fill="#F1F1F1" height="2" style="stroke:#181818;stroke-width:0.5;" width="4" x="622.2632" y="1023.5169"/><text fill="#000000" font-family="sans-serif" font-size="14" lengthAdjust="spacing" textLength="70.5332" x="548.73" y="1045.512">SQLite DB</text></g><!--entity Web Browser--><g class="entity" data-qualified-name="Operator.nWorkstation . Browser.Web Browser" data-source-line="42" id="ent0023"><rect fill="#F1F1F1" height="46.2969" rx="2.5" ry="2.5" style="stroke:#181818;stroke-width:0.5;" width="132.832" x="1031.58" y="853.0769"/><rect fill="#F1F1F1" height="10" style="stroke:#181818;stroke-width:0.5;" width="15" x="1144.412" y="858.0769"/><rect fill="#F1F1F1" height="2" style="stroke:#181818;stroke-width:0.5;" width="4" x="1142.412" y="860.0769"/><rect fill="#F1F1F1" height="2" style="stroke:#181818;stroke-width:0.5;" width="4" x="1142.412" y="864.0769"/><text fill="#000000" font-family="sans-serif" font-size="14" lengthAdjust="spacing" textLength="92.832" x="1046.58" y="886.072">Web Browser</text></g><!--entity GPT-4o API--><g class="entity" data-qualified-name="OpenAI Cloud.GPT-4o API" data-source-line="46" id="ent0025"><rect fill="#F1F1F1" height="46.2969" rx="2.5" ry="2.5" style="stroke:#181818;stroke-width:0.5;" width="116.9658" x="65.52" y="1012.5169"/><rect fill="#F1F1F1" height="10" style="stroke:#181818;stroke-width:0.5;" width="15" x="162.4858" y="1017.5169"/><rect fill="#F1F1F1" height="2" style="stroke:#181818;stroke-width:0.5;" width="4" x="160.4858" y="1019.5169"/><rect fill="#F1F1F1" height="2" style="stroke:#181818;stroke-width:0.5;" width="4" x="160.4858" y="1023.5169"/><text fill="#000000" font-family="sans-serif" font-size="14" lengthAdjust="spacing" textLength="76.9658" x="80.52" y="1045.512">GPT-4o API</text></g><!--link Sensors I1..I4 to DIO--><g class="link" data-entity-1="ent0003" data-entity-2="ent0007" data-link-type="dependency" data-source-line="49" id="lnk26"><path d="M658,145.7669 C658,176.4169 658,225.6569 658,260.1869" fill="none" id="Sensors I1..I4-to-DIO" style="stroke:#181818;stroke-width:1;"/><polygon fill="#181818" points="658,266.1869,662,257.1869,658,261.1869,654,257.1869,658,266.1869" style="stroke:#181818;stroke-width:1;"/><text fill="#000000" font-family="sans-serif" font-size="13" lengthAdjust="spacing" textLength="89.7622" x="659" y="190.6538">digital signals</text></g><!--link DIO to RevPiRT--><g class="link" data-entity-1="ent0007" data-entity-2="ent0006" data-link-type="dependency" data-source-line="50" id="lnk27"><path d="M658,329.4269 C658,352.2269 658,377.2469 658,400.0269" fill="none" id="DIO-to-RevPiRT" style="stroke:#181818;stroke-width:1;"/><polygon fill="#181818" points="658,406.0269,662,397.0269,658,401.0269,654,397.0269,658,406.0269" style="stroke:#181818;stroke-width:1;"/><text fill="#000000" font-family="sans-serif" font-size="13" lengthAdjust="spacing" textLength="59.1411" x="659" y="372.2538">piControl</text></g><!--link RevPiRT to EMQX Broker--><g class="link" data-entity-1="ent0006" data-entity-2="ent0011" data-link-type="dependency" data-source-line="51" id="lnk28"><path d="M606.86,469.0569 C596.42,477.8969 586.85,488.5169 581,500.7769 C550.02,565.7069 601.892,642.0267 633.932,680.6967" fill="none" id="RevPiRT-to-EMQX Broker" style="stroke:#181818;stroke-width:1;"/><polygon fill="#181818" points="637.76,685.3169,635.0981,675.8346,634.57,681.4667,628.9378,680.9386,637.76,685.3169" style="stroke:#181818;stroke-width:1;"/><text fill="#000000" font-family="sans-serif" font-size="13" lengthAdjust="spacing" textLength="106.8311" x="582" y="513.8438">MQTT over Wi-Fi</text></g><!--link EMQX Broker to RevPiRT--><g class="link" data-entity-1="ent0011" data-entity-2="ent0006" data-link-type="dependency" data-source-line="52" id="lnk29"><path d="M667.9,685.5769 C683.49,647.3069 710.31,566.9369 693,500.7769 C690.14,489.8569 687.8865,484.0251 682.3065,474.3451" fill="none" id="EMQX Broker-to-RevPiRT" style="stroke:#181818;stroke-width:1;"/><polygon fill="#181818" points="679.31,469.1469,680.3393,478.9418,681.8071,473.4787,687.2702,474.9465,679.31,469.1469" style="stroke:#181818;stroke-width:1;"/><text fill="#000000" font-family="sans-serif" font-size="13" lengthAdjust="spacing" textLength="113.1216" x="697" y="513.8438">MQTT commands</text></g><!--link EMQX Broker to FastAPI App--><g class="link" data-entity-1="ent0011" data-entity-2="ent0013" data-link-type="dependency" data-source-line="53" id="lnk30"><path d="M649.1,732.5669 C636.69,764.1269 616.5057,815.4531 604.0957,847.0131" fill="none" id="EMQX Broker-to-FastAPI App" style="stroke:#181818;stroke-width:1;"/><polygon fill="#181818" points="601.9,852.5969,608.916,845.6849,603.7297,847.9437,601.471,842.7574,601.9,852.5969" style="stroke:#181818;stroke-width:1;"/><text fill="#000000" font-family="sans-serif" font-size="13" lengthAdjust="spacing" textLength="37.3306" x="636" y="777.1438">MQTT</text></g><!--link EMQX Broker to ML Service Thread--><g class="link" data-entity-1="ent0011" data-entity-2="ent0014" data-link-type="dependency" data-source-line="54" id="lnk31"><path d="M674.02,732.5669 C696.37,764.1269 733.1734,816.1396 755.5134,847.6996" fill="none" id="EMQX Broker-to-ML Service Thread" style="stroke:#181818;stroke-width:1;"/><polygon fill="#181818" points="758.98,852.5969,757.045,842.94,756.0912,848.5158,750.5153,847.562,758.98,852.5969" style="stroke:#181818;stroke-width:1;"/><text fill="#000000" font-family="sans-serif" font-size="13" lengthAdjust="spacing" textLength="37.3306" x="707" y="777.1438">MQTT</text></g><!--link FastAPI App to InfluxDB--><g class="link" data-entity-1="ent0013" data-entity-2="ent0017" data-link-type="dependency" data-source-line="55" id="lnk32"><path d="M552.73,899.6569 C538.24,908.6169 522.22,919.6069 509,931.3769 C481.25,956.0869 458.4628,985.3712 442.6728,1007.5212" fill="none" id="FastAPI App-to-InfluxDB" style="stroke:#181818;stroke-width:1;"/><polygon fill="#181818" points="439.19,1012.4069,447.6714,1007.4003,442.0924,1008.3355,441.1571,1002.7565,439.19,1012.4069" style="stroke:#181818;stroke-width:1;"/><text fill="#000000" font-family="sans-serif" font-size="13" lengthAdjust="spacing" textLength="66.625" x="510" y="944.4438">write/read</text></g><!--link FastAPI App to SQLite DB--><g class="link" data-entity-1="ent0013" data-entity-2="ent0021" data-link-type="dependency" data-source-line="56" id="lnk33"><path d="M589.42,899.8169 C588.06,909.5069 586.67,920.9669 586,931.3769 C584.21,959.1269 585.2784,985.151 586.7184,1006.091" fill="none" id="FastAPI App-to-SQLite DB" style="stroke:#181818;stroke-width:1;"/><polygon fill="#181818" points="587.13,1012.0769,590.5031,1002.8237,586.787,1007.0887,582.522,1003.3725,587.13,1012.0769" style="stroke:#181818;stroke-width:1;"/><text fill="#000000" font-family="sans-serif" font-size="13" lengthAdjust="spacing" textLength="66.625" x="587" y="944.4438">write/read</text></g><!--link FastAPI App to React App\n(Nginx)--><g class="link" data-entity-1="ent0013" data-entity-2="ent0019" data-link-type="dependency" data-source-line="57" id="lnk34"><path d="M624.38,899.7869 C662.46,927.1669 721.9778,969.9553 764.5278,1000.5353" fill="none" id="FastAPI App-to-React App\n(Nginx)" style="stroke:#181818;stroke-width:1;"/><polygon fill="#181818" points="769.4,1004.0369,764.426,995.5363,765.3398,1001.1189,759.7572,1002.0326,769.4,1004.0369" style="stroke:#181818;stroke-width:1;"/><text fill="#000000" font-family="sans-serif" font-size="13" lengthAdjust="spacing" textLength="73.0806" x="690" y="944.4438">WebSocket</text></g><!--link React App\n(Nginx) to FastAPI App--><g class="link" data-entity-1="ent0019" data-entity-2="ent0013" data-link-type="dependency" data-source-line="59" id="lnk36"><path d="M808.83,1004.1169 C804.62,980.2569 794.81,948.3969 772,931.3769 C754.31,918.1769 694.07,929.9369 673,923.3769 C656.01,918.0769 643.7846,911.8981 629.6446,902.9781" fill="none" id="React App\n(Nginx)-to-FastAPI App" style="stroke:#181818;stroke-width:1;"/><polygon fill="#181818" points="624.57,899.7769,630.0478,907.9619,628.7989,902.4446,634.3161,901.1957,624.57,899.7769" style="stroke:#181818;stroke-width:1;"/><text fill="#000000" font-family="sans-serif" font-size="13" lengthAdjust="spacing" textLength="58.1382" x="787" y="944.4438">REST API</text></g><!--link Web Browser to React App\n(Nginx)--><g class="link" data-entity-1="ent0023" data-entity-2="ent0019" data-link-type="dependency" data-source-line="58" id="lnk35"><path d="M1057.02,899.7869 C1007.37,927.1169 928.716,970.413 873.156,1001.003" fill="none" id="Web Browser-to-React App\n(Nginx)" style="stroke:#181818;stroke-width:1;"/><polygon fill="#181818" points="867.9,1003.8969,877.7132,1003.0601,872.28,1001.4853,873.8548,996.0521,867.9,1003.8969" style="stroke:#181818;stroke-width:1;"/><text fill="#000000" font-family="sans-serif" font-size="13" lengthAdjust="spacing" textLength="33.4966" x="998" y="944.4438">HTTP</text></g><!--link ChatGPT Service Thread to GPT-4o API--><g class="link" data-entity-1="ent0015" data-entity-2="ent0025" data-link-type="dependency" data-source-line="60" id="lnk37"><path d="M352.75,899.7869 C301.99,929.7169 218.0683,979.1991 167.3483,1009.1091" fill="none" id="ChatGPT Service Thread-to-GPT-4o API" style="stroke:#181818;stroke-width:1;"/><polygon fill="#181818" points="162.18,1012.1569,171.9643,1011.0307,166.4869,1009.6171,167.9006,1004.1397,162.18,1012.1569" style="stroke:#181818;stroke-width:1;"/><text fill="#000000" font-family="sans-serif" font-size="13" lengthAdjust="spacing" textLength="41.7485" x="298" y="944.4438">HTTPS</text></g><?plantuml-src XPDDRzf048Rl_XMZdXfL9AgQKm-L22ID9MWSR8bMWSF6djWhrZlExZeaglZldJLWOWBK1opcVUR3E-_QXTILCAA4Hv4kSaErpWQaoC2oa0u3s-gQCeI_0V1pjOUEP5wuFwWKBTSwcGpDMXiAixWpGkSOh8B0IQSGuZVhi8GXLehUIjGEXbBat2G8cYwVdgHD2pGEqqBBnKn7jKuBgNCO2__6Jvj17cBKbeo5yElvUNWvNmVxgQk5y-5eEcQ1VrbQROjFy8LKxIHfY2GCo21y-pBJdqETrTOPAHG7jJEa59gpjXMdCJwfjPCbCXwzkOBqsHo4XKQR92tuhluml9lfCMMrmWRb_xjHRiawY0PSRKGfzvtAtes4MtAs8jUsNhD3IXTeUBIo8ijdw7W9Ms97OVdy2YcFB_YOp7kzcUrwVFyRhWnnfNchhFPgU2UWpawKkH7MzQCG-bKrxohZ4SHeNcIAa1G6HRQd3mhXVaR9KMX_5gcVLFsQFPuO9coGuTNn8a-6aqz_qGH5wlpty2v-vLA_dXqlPvyLNmtmMoxnGwNuVkJLZ_EiTdk_gz1uXyxqbCp2Ej6uvS9lPcbtqprCyN4RctUoTJ-4WQ8wQr4-rDub0M-b8VTl1lHwFxptu3jaCfUEpMPbheMoWOzwTMDY9YgvkG31DkRrZdcO6jyd2T0BUxAnRT3LknKRDgMo53gp1yYEepRy8UoZlLguKw61MsCmipIyb0kVSOZSxUo_w06ZS0ulAlRtqmMTdPrAkKsIA3Ye7JgGoNMS-EK6nsxGEkkT2pOjudy0?></g></svg>