<svg xmlns="http://www.w3.org/2000/svg" xmlns:xlink="http://www.w3.org/1999/xlink" contentStyleType="text/css" data-diagram-type="STATE" height="654px" preserveAspectRatio="none" style="width:764px;height:654px;background:#FFFFFF;" version="1.1" viewBox="0 0 764 654" width="764px" zoomAndPan="magnify"><?plantuml 1.2026.4beta2?><defs/><g><g class="title" data-source-line="7"><text fill="#000000" font-family="sans-serif" font-size="14" font-weight="700" lengthAdjust="spacing" textLength="184.9941" x="286.2468" y="22.9951">Decision State Machine</text></g><path d="M43.72,44.2969 L229.7005,44.2969 A12.5,12.5 0 0 1 242.2005,56.7969 L242.2005,70.5938 L31.22,70.5938 L31.22,56.7969 A12.5,12.5 0 0 1 43.72,44.2969" fill="#E0FFFF"/><rect fill="none" height="170.5313" rx="12.5" ry="12.5" style="stroke:#00008B;stroke-width:0.5;" width="210.9805" x="31.22" y="44.2969"/><line style="stroke:#00008B;stroke-width:0.5;" x1="31.22" x2="242.2005" y1="70.5938" y2="70.5938"/><text fill="#000000" font-family="sans-serif" font-size="14" lengthAdjust="spacing" textLength="131.8926" x="70.7639" y="62.292">EMERGENCY_STOP</text><g class="entity" data-qualified-name="EMERGENCY_STOP.MachineHalted" id="ent0003"><rect fill="#E0FFFF" height="64.2344" rx="12.5" ry="12.5" style="stroke:#00008B;stroke-width:0.5;" width="174.9805" x="43.22" y="137.5938"/><line style="stroke:#00008B;stroke-width:0.5;" x1="43.22" x2="218.2005" y1="163.8906" y2="163.8906"/><text fill="#000000" font-family="sans-serif" font-size="14" lengthAdjust="spacing" textLength="104.5898" x="78.4153" y="155.5889">MachineHalted</text><text fill="#000000" font-family="sans-serif" font-size="12" lengthAdjust="spacing" textLength="154.9805" x="48.22" y="180.0293">Automatic stop command</text><text fill="#000000" font-family="sans-serif" font-size="12" lengthAdjust="spacing" textLength="111.4336" x="48.22" y="193.998">published to RevPi</text></g><g class="start_entity" data-qualified-name="EMERGENCY_STOP..start.EMERGENCY_STOP" data-source-line="26" id="ent0017"><ellipse cx="130.71" cy="91.5938" fill="#222222" rx="10" ry="10" style="stroke:#222222;stroke-width:1;"/></g><!--link *start*EMERGENCY_STOP to MachineHalted--><g class="link" data-entity-1="ent0017" data-entity-2="ent0003" data-link-type="dependency" data-source-line="26" id="lnk18"><path d="M130.71,101.9238 C130.71,110.7338 130.71,118.4638 130.71,131.1838" fill="none" id="*start*EMERGENCY_STOP-to-MachineHalted" style="stroke:#181818;stroke-width:1;"/><polygon fill="#181818" points="130.71,137.1838,134.71,128.1838,130.71,132.1838,126.71,128.1838,130.71,137.1838" style="stroke:#181818;stroke-width:1;"/></g><g class="start_entity" data-qualified-name=".start." data-source-line="9" id="ent0002"><ellipse cx="525.71" cy="129.5569" fill="#222222" rx="10" ry="10" style="stroke:#222222;stroke-width:1;"/></g><g class="entity" data-qualified-name="NORMAL" id="ent0003"><rect fill="#E0FFFF" height="50" rx="12.5" ry="12.5" style="stroke:#00008B;stroke-width:0.5;" width="80.6758" x="318.37" y="306.8269"/><line style="stroke:#00008B;stroke-width:0.5;" x1="318.37" x2="399.0458" y1="333.1238" y2="333.1238"/><text fill="#000000" font-family="sans-serif" font-size="14" lengthAdjust="spacing" textLength="60.6758" x="328.37" y="324.822">NORMAL</text></g><g class="entity" data-qualified-name="WARNING" id="ent0005"><rect fill="#E0FFFF" height="50" rx="12.5" ry="12.5" style="stroke:#00008B;stroke-width:0.5;" width="89.0703" x="299.17" y="590.8269"/><line style="stroke:#00008B;stroke-width:0.5;" x1="299.17" x2="388.2403" y1="617.1238" y2="617.1238"/><text fill="#000000" font-family="sans-serif" font-size="14" lengthAdjust="spacing" textLength="69.0703" x="309.17" y="608.822">WARNING</text></g><g class="entity" data-qualified-name="CRITICAL" id="ent0007"><rect fill="#E0FFFF" height="50" rx="12.5" ry="12.5" style="stroke:#00008B;stroke-width:0.5;" width="83.4648" x="152.98" y="448.8269"/><line style="stroke:#00008B;stroke-width:0.5;" x1="152.98" x2="236.4448" y1="475.1238" y2="475.1238"/><text fill="#000000" font-family="sans-serif" font-size="14" lengthAdjust="spacing" textLength="63.4648" x="162.98" y="466.822">CRITICAL</text></g><g class="entity" data-qualified-name="GMN2" data-source-line="31" id="ent0003"><path d="M277.05,101.8669 L277.05,125.5569 L242.58,129.5569 L277.05,133.5569 L277.05,157.2653 A0,0 0 0 0 277.05,157.2653 L480.3674,157.2653 A0,0 0 0 0 480.3674,157.2653 L480.3674,111.8669 L470.3674,101.8669 L277.05,101.8669 A0,0 0 0 0 277.05,101.8669" fill="#FEFFDD" style="stroke:#181818;stroke-width:0.5;"/><path d="M470.3674,101.8669 L470.3674,111.8669 L480.3674,111.8669 L470.3674,101.8669" fill="#FEFFDD" style="stroke:#181818;stroke-width:0.5;"/><text fill="#000000" font-family="sans-serif" font-size="13" lengthAdjust="spacing" textLength="182.3174" x="283.05" y="118.9338">Triggered by IO health only.</text><text fill="#000000" font-family="sans-serif" font-size="13" lengthAdjust="spacing" textLength="148.6621" x="283.05" y="134.0666">ML CRITICAL does NOT</text><text fill="#000000" font-family="sans-serif" font-size="13" lengthAdjust="spacing" textLength="150.1157" x="283.05" y="149.1994">trigger automatic stop.</text></g><!--link *start* to NORMAL--><g class="link" data-entity-1="ent0002" data-entity-2="ent0003" data-link-type="dependency" data-source-line="9" id="lnk4"><path d="M525.27,139.6969 C523.6,164.7569 515.68,235.4669 478.71,276.8269 C458,299.9869 431.1743,312.0541 405.1843,319.8941" fill="none" id="*start*-to-NORMAL" style="stroke:#181818;stroke-width:1;"/><polygon fill="#181818" points="399.44,321.6269,409.2117,322.8572,404.2269,320.1829,406.9013,315.1981,399.44,321.6269" style="stroke:#181818;stroke-width:1;"/><text fill="#000000" font-family="sans-serif" font-size="13" lengthAdjust="spacing" textLength="82.8877" x="518.3531" y="257.8938">System start</text><text fill="#000000" font-family="sans-serif" font-size="13" lengthAdjust="spacing" textLength="120.1738" x="499.71" y="273.0266">Warmup complete</text></g><!--link NORMAL to WARNING--><g class="link" data-entity-1="ent0003" data-entity-2="ent0005" data-link-type="dependency" data-source-line="11" id="lnk6"><path d="M399.28,340.5169 C481.91,358.2069 658,407.4969 609.71,498.8269 C567.26,579.1069 458.6781,603.1392 394.6081,610.7492" fill="none" id="NORMAL-to-WARNING" style="stroke:#181818;stroke-width:1;"/><polygon fill="#181818" points="388.65,611.4569,398.059,614.3674,393.6151,610.8671,397.1154,606.4233,388.65,611.4569" style="stroke:#181818;stroke-width:1;"/><text fill="#000000" font-family="sans-serif" font-size="13" lengthAdjust="spacing" textLength="115.8003" x="625.6988" y="470.8938">ML score exceeds</text><text fill="#000000" font-family="sans-serif" font-size="13" lengthAdjust="spacing" textLength="129.7778" x="618.71" y="486.0266">WARNING threshold</text></g><!--link WARNING to NORMAL--><g class="link" data-entity-1="ent0005" data-entity-2="ent0003" data-link-type="dependency" data-source-line="15" id="lnk10"><path d="M388.55,606.2269 C414.22,598.7969 444.48,585.2269 460.71,560.8269 C501.41,499.6169 475.68,403.0269 465.71,386.8269 C451.26,363.3469 428.8087,351.5538 405.0087,343.8538" fill="none" id="WARNING-to-NORMAL" style="stroke:#181818;stroke-width:1;"/><polygon fill="#181818" points="399.3,342.0069,406.6317,348.583,404.0572,343.546,409.0943,340.9715,399.3,342.0069" style="stroke:#181818;stroke-width:1;"/><text fill="#000000" font-family="sans-serif" font-size="13" lengthAdjust="spacing" textLength="68.2437" x="504.448" y="470.8938">Next cycle</text><text fill="#000000" font-family="sans-serif" font-size="13" lengthAdjust="spacing" textLength="107.7197" x="484.71" y="486.0266">ML score normal</text></g><!--link NORMAL to CRITICAL--><g class="link" data-entity-1="ent0003" data-entity-2="ent0007" data-link-type="dependency" data-source-line="12" id="lnk8"><path d="M347.96,357.2769 C338.71,376.0469 323.83,401.5969 304.71,418.8269 C285.19,436.4069 264.4579,447.3363 242.4779,456.2763" fill="none" id="NORMAL-to-CRITICAL" style="stroke:#181818;stroke-width:1;"/><polygon fill="#181818" points="236.92,458.5369,246.7638,458.8513,241.5516,456.6531,243.7497,451.4408,236.92,458.5369" style="stroke:#181818;stroke-width:1;"/><text fill="#000000" font-family="sans-serif" font-size="13" lengthAdjust="spacing" textLength="115.8003" x="337.0962" y="399.8938">ML score exceeds</text><text fill="#000000" font-family="sans-serif" font-size="13" lengthAdjust="spacing" textLength="124.5728" x="332.71" y="415.0266">CRITICAL threshold</text></g><!--link CRITICAL to NORMAL--><g class="link" data-entity-1="ent0007" data-entity-2="ent0003" data-link-type="dependency" data-source-line="19" id="lnk13"><path d="M184.78,448.6069 C178.87,429.9569 174.78,404.4669 187.71,386.8269 C191.7,381.3769 263.0639,360.1757 312.3539,345.9957" fill="none" id="CRITICAL-to-NORMAL" style="stroke:#181818;stroke-width:1;"/><polygon fill="#181818" points="318.12,344.3369,308.3649,342.981,313.3149,345.7192,310.5767,350.6692,318.12,344.3369" style="stroke:#181818;stroke-width:1;"/><text fill="#000000" font-family="sans-serif" font-size="13" lengthAdjust="spacing" textLength="68.2437" x="208.448" y="399.8938">Next cycle</text><text fill="#000000" font-family="sans-serif" font-size="13" lengthAdjust="spacing" textLength="107.7197" x="188.71" y="415.0266">ML score normal</text></g><!--link NORMAL to EMERGENCY_STOP--><g class="link" data-entity-1="ent0003" data-entity-2="ent0002" data-link-type="dependency" data-source-line="13" id="lnk9"><path d="M318,319.6669 C271.65,306.6469 201.08,285.7669 191.71,276.8269 C174.34,260.2569 164.4525,243.2949 156.2725,220.8249" fill="none" id="NORMAL-to-EMERGENCY_STOP" style="stroke:#181818;stroke-width:1;"/><polygon fill="#181818" points="154.22,215.1869,153.54,225.0122,155.9304,219.8852,161.0574,222.2756,154.22,215.1869" style="stroke:#181818;stroke-width:1;"/><text fill="#000000" font-family="sans-serif" font-size="13" lengthAdjust="spacing" textLength="122.4146" x="192.71" y="257.8938">IO health CRITICAL</text><text fill="#000000" font-family="sans-serif" font-size="13" lengthAdjust="spacing" textLength="91.4634" x="208.1856" y="273.0266">fault detected</text></g><!--link EMERGENCY_STOP to NORMAL--><g class="link" data-entity-1="ent0002" data-entity-2="ent0003" data-link-type="dependency" data-source-line="23" id="lnk16"><path d="M242.46,204.3369 C248.25,207.9569 254.02,211.4769 259.71,214.8269 C285.4,229.9569 299.03,223.3469 319.71,244.8269 C336.31,262.0669 344.8803,281.8869 350.7103,300.6569" fill="none" id="EMERGENCY_STOP-to-NORMAL" style="stroke:#181818;stroke-width:1;"/><polygon fill="#181818" points="352.49,306.3869,353.6404,296.6054,351.0069,301.6119,346.0004,298.9784,352.49,306.3869" style="stroke:#181818;stroke-width:1;"/><text fill="#000000" font-family="sans-serif" font-size="13" lengthAdjust="spacing" textLength="102.4893" x="346.8011" y="257.8938">Operator issues</text><text fill="#000000" font-family="sans-serif" font-size="13" lengthAdjust="spacing" textLength="110.6714" x="342.71" y="273.0266">RESET command</text></g><!--link WARNING to CRITICAL--><g class="link" data-entity-1="ent0005" data-entity-2="ent0007" data-link-type="dependency" data-source-line="16" id="lnk11"><path d="M337.52,590.3569 C331.71,571.5669 321.37,546.0069 304.71,528.8269 C286.12,509.6569 264.9217,498.4564 242.4317,489.8264" fill="none" id="WARNING-to-CRITICAL" style="stroke:#181818;stroke-width:1;"/><polygon fill="#181818" points="236.83,487.6769,243.7996,494.6357,241.4981,489.4682,246.6656,487.1667,236.83,487.6769" style="stroke:#181818;stroke-width:1;"/><text fill="#000000" font-family="sans-serif" font-size="13" lengthAdjust="spacing" textLength="115.8003" x="332.0962" y="541.8938">ML score exceeds</text><text fill="#000000" font-family="sans-serif" font-size="13" lengthAdjust="spacing" textLength="124.5728" x="327.71" y="557.0266">CRITICAL threshold</text></g><!--link CRITICAL to WARNING--><g class="link" data-entity-1="ent0007" data-entity-2="ent0005" data-link-type="dependency" data-source-line="20" id="lnk14"><path d="M181.43,499.2669 C173.35,517.7969 166.83,543.0269 179.71,560.8269 C206.68,598.1069 254.2962,609.5365 292.8862,613.1565" fill="none" id="CRITICAL-to-WARNING" style="stroke:#181818;stroke-width:1;"/><polygon fill="#181818" points="298.86,613.7169,290.2729,608.8938,293.8819,613.2499,289.5258,616.8588,298.86,613.7169" style="stroke:#181818;stroke-width:1;"/><text fill="#000000" font-family="sans-serif" font-size="13" lengthAdjust="spacing" textLength="115.6987" x="180.71" y="541.8938">ML score drops to</text><text fill="#000000" font-family="sans-serif" font-size="13" lengthAdjust="spacing" textLength="106.0693" x="185.5247" y="557.0266">WARNING range</text></g><!--link WARNING to EMERGENCY_STOP--><g class="link" data-entity-1="ent0005" data-entity-2="ent0002" data-link-type="dependency" data-source-line="17" id="lnk12"><path d="M298.69,608.0369 C260.74,600.7869 206.16,586.6669 164.71,560.8269 C91.59,515.2469 64.23,499.0269 32.71,418.8269 C6,350.8669 34.6903,278.036 69.9603,220.346" fill="none" id="WARNING-to-EMERGENCY_STOP" style="stroke:#181818;stroke-width:1;"/><polygon fill="#181818" points="73.09,215.2269,64.9828,220.8191,70.4819,219.4928,71.8082,224.992,73.09,215.2269" style="stroke:#181818;stroke-width:1;"/><text fill="#000000" font-family="sans-serif" font-size="13" lengthAdjust="spacing" textLength="122.4146" x="33.71" y="399.8938">IO health CRITICAL</text><text fill="#000000" font-family="sans-serif" font-size="13" lengthAdjust="spacing" textLength="91.4634" x="49.1856" y="415.0266">fault detected</text></g><!--link CRITICAL to EMERGENCY_STOP--><g class="link" data-entity-1="ent0007" data-entity-2="ent0002" data-link-type="dependency" data-source-line="21" id="lnk15"><path d="M182.55,448.3469 C178.51,439.2669 174.37,428.7669 171.71,418.8269 C153.74,351.7469 145.4089,279.3808 141.1489,221.3008" fill="none" id="CRITICAL-to-EMERGENCY_STOP" style="stroke:#181818;stroke-width:1;"/><polygon fill="#181818" points="140.71,215.3169,137.3791,224.5854,141.0758,220.3035,145.3576,224.0002,140.71,215.3169" style="stroke:#181818;stroke-width:1;"/><text fill="#000000" font-family="sans-serif" font-size="13" lengthAdjust="spacing" textLength="122.4146" x="158.71" y="328.8938">IO health CRITICAL</text><text fill="#000000" font-family="sans-serif" font-size="13" lengthAdjust="spacing" textLength="91.4634" x="174.1856" y="344.0266">fault detected</text></g><?plantuml-src dPF1Rjim44Jl_8ez5qW-e8S2ZYAa1cmva0K4HLqKDBMn25DSWLor4Oh-UrUIhLXk3crqrF3j3CbXF5hVwA1hs6jpF0HgVPcGem0_AykeugH7repmIu5yTrThL_PGST9fFweKIWoZSg_3ySwrg7uhnPOTmZqQ6orvs0u3rzfKrgDINpzyWvkRJv1jylLY1HzXsqN6mJVmpZ_fKBSD6AeRXn9CdTRroDCYpvRPWp3h5KH30G5V368PXJjfN0MC5Rdo4apoPR5C1hU_oKby4qtNQVwGPicNxzjYyoW3bXkeK3kkfgax_wnRnr1ANiDOAdKECzjdXYyCfZCETtvAuIdKsis0_mrxoRuhxJJpd-FEY3TkfGpKH61wlPQW_G7dtBkoNa6pn9i6WsOfeusnHJciFDscHL-bMdjXnsPVJHYBVYxbgQMV9OMuzShiZvWiMgPQipLIM6hEmtU-QVVEnahMC46EFnvj_nGyYMFeNmtGyvNrCBuGyO11i7rtSG3aNNSx-gzU2r4IHjbkCGWyag1dWMuL-X9wspy0?></g></svg>