<svg xmlns="http://www.w3.org/2000/svg" xmlns:xlink="http://www.w3.org/1999/xlink" contentStyleType="text/css" data-diagram-type="ACTIVITY" height="1221px" preserveAspectRatio="none" style="width:833px;height:1221px;background:#FFFFFF;" version="1.1" viewBox="0 0 833 1221" width="833px" zoomAndPan="magnify"><?plantuml 1.2026.4beta2?><defs/><g><g class="title" data-source-line="13"><text fill="#000000" font-family="sans-serif" font-size="14" font-weight="700" lengthAdjust="spacing" textLength="351.4971" x="239.9004" y="32.9951">WebSocket Broadcast Flow Activity Diagram</text></g><path d="M368.5813,52.2969 L368.5813,77.4297 L459.7166,77.4297 L459.7166,62.2969 L449.7166,52.2969 L368.5813,52.2969" fill="#F5F5DC" style="stroke:#808080;stroke-width:0.5;"/><path d="M449.7166,52.2969 L449.7166,62.2969 L459.7166,62.2969 L449.7166,52.2969" fill="#F5F5DC" style="stroke:#808080;stroke-width:0.5;"/><text fill="#000000" font-family="sans-serif" font-size="13" font-weight="700" lengthAdjust="spacing" textLength="70.1353" x="374.5813" y="69.3638">BACKEND</text><ellipse cx="414.1489" cy="107.4297" fill="#222222" rx="10" ry="10" style="stroke:#222222;stroke-width:1;"/><rect fill="#FFFFE0" height="47.9375" rx="12.5" ry="12.5" style="stroke:#FF8C00;stroke-width:0.5;" width="163.2559" x="332.521" y="137.4297"/><text fill="#000000" font-family="sans-serif" font-size="12" lengthAdjust="spacing" textLength="137.3086" x="342.521" y="158.5684">MQTT message arrives</text><text fill="#000000" font-family="sans-serif" font-size="12" lengthAdjust="spacing" textLength="143.2559" x="342.521" y="172.5371">on any subscribed topic</text><rect fill="#FFFFE0" height="33.9688" rx="12.5" ry="12.5" style="stroke:#FF8C00;stroke-width:0.5;" width="129.541" x="349.3784" y="205.3672"/><text fill="#000000" font-family="sans-serif" font-size="12" lengthAdjust="spacing" textLength="109.541" x="359.3784" y="226.5059">Identify topic type</text><polygon fill="#FFFFE0" points="400.5842,259.3359,427.7136,259.3359,439.7136,271.3359,427.7136,283.3359,400.5842,283.3359,388.5842,271.3359,400.5842,259.3359" style="stroke:#FF8C00;stroke-width:0.5;"/><text fill="#000000" font-family="sans-serif" font-size="11" lengthAdjust="spacing" textLength="27.1294" x="400.5842" y="275.144">topic</text><rect fill="#FFFFE0" height="47.9375" rx="12.5" ry="12.5" style="stroke:#FF8C00;stroke-width:0.5;" width="180.5938" x="52.3228" y="342.4419"/><text fill="#000000" font-family="sans-serif" font-size="12" lengthAdjust="spacing" textLength="102.7793" x="62.3228" y="363.5806">Write to InfluxDB</text><text fill="#000000" font-family="sans-serif" font-size="12" lengthAdjust="spacing" textLength="160.5938" x="62.3228" y="377.5493">sensor_data measurement</text><rect fill="#FFFFE0" height="61.9063" rx="12.5" ry="12.5" style="stroke:#FF8C00;stroke-width:0.5;" width="154.8301" x="252.9165" y="368.0513"/><text fill="#000000" font-family="sans-serif" font-size="12" lengthAdjust="spacing" textLength="102.7793" x="262.9165" y="389.1899">Write to InfluxDB</text><text fill="#000000" font-family="sans-serif" font-size="12" lengthAdjust="spacing" textLength="134.8301" x="262.9165" y="403.1587">ml_behavior / decision</text><text fill="#000000" font-family="sans-serif" font-size="12" lengthAdjust="spacing" textLength="83.9824" x="262.9165" y="417.1274">measurement</text><rect fill="#FFFFE0" height="47.9375" rx="12.5" ry="12.5" style="stroke:#FF8C00;stroke-width:0.5;" width="144.0195" x="258.3218" y="464.9575"/><text fill="#000000" font-family="sans-serif" font-size="12" lengthAdjust="spacing" textLength="91.0664" x="268.3218" y="486.0962">Write to SQLite</text><text fill="#000000" font-family="sans-serif" font-size="12" lengthAdjust="spacing" textLength="124.0195" x="268.3218" y="500.0649">system_events table</text><rect fill="#FFFFE0" height="47.9375" rx="12.5" ry="12.5" style="stroke:#FF8C00;stroke-width:0.5;" width="174.2012" x="427.7466" y="342.4419"/><text fill="#000000" font-family="sans-serif" font-size="12" lengthAdjust="spacing" textLength="91.0664" x="437.7466" y="363.5806">Write to SQLite</text><text fill="#000000" font-family="sans-serif" font-size="12" lengthAdjust="spacing" textLength="154.2012" x="437.7466" y="377.5493">assistant_messages table</text><rect fill="#FFFFE0" height="47.9375" rx="12.5" ry="12.5" style="stroke:#FF8C00;stroke-width:0.5;" width="154.0273" x="621.9478" y="355.2466"/><text fill="#000000" font-family="sans-serif" font-size="12" lengthAdjust="spacing" textLength="91.0664" x="631.9478" y="376.3853">Write to SQLite</text><text fill="#000000" font-family="sans-serif" font-size="12" lengthAdjust="spacing" textLength="134.0273" x="631.9478" y="390.354">state_transitions table</text><rect fill="#FFFFE0" height="47.9375" rx="12.5" ry="12.5" style="stroke:#FF8C00;stroke-width:0.5;" width="138.7813" x="629.5708" y="438.1841"/><text fill="#000000" font-family="sans-serif" font-size="12" lengthAdjust="spacing" textLength="110.0273" x="639.5708" y="459.3228">Update supervisor</text><text fill="#000000" font-family="sans-serif" font-size="12" lengthAdjust="spacing" textLength="118.7813" x="639.5708" y="473.2915">online/offline status</text><polygon fill="#FFFFE0" points="414.1489,522.895,414.1489,522.895,426.1489,534.895,414.1489,546.895,414.1489,546.895,402.1489,534.895,414.1489,522.895" style="stroke:#FF8C00;stroke-width:0.5;"/><rect fill="#FFFFE0" height="47.9375" rx="12.5" ry="12.5" style="stroke:#FF8C00;stroke-width:0.5;" width="214.6133" x="306.8423" y="566.895"/><text fill="#000000" font-family="sans-serif" font-size="12" lengthAdjust="spacing" textLength="188.3613" x="316.8423" y="588.0337">Construct WebSocket envelope</text><text fill="#000000" font-family="sans-serif" font-size="12" lengthAdjust="spacing" textLength="194.6133" x="316.8423" y="602.0024">{topic, data, type: sensor_data}</text><path d="M53.6494,672.2349 L53.6494,697.3677 L154.8901,697.3677 L154.8901,682.2349 L144.8901,672.2349 L53.6494,672.2349" fill="#F5F5DC" style="stroke:#808080;stroke-width:0.5;"/><path d="M144.8901,672.2349 L144.8901,682.2349 L154.8901,682.2349 L144.8901,672.2349" fill="#F5F5DC" style="stroke:#808080;stroke-width:0.5;"/><text fill="#000000" font-family="sans-serif" font-size="13" font-weight="700" lengthAdjust="spacing" textLength="80.2407" x="59.6494" y="689.3018">FRONTEND</text><rect fill="#555555" height="6" rx="2.5" ry="2.5" style="stroke:#555555;stroke-width:1;" width="478.5176" x="174.8901" y="634.8325"/><rect fill="#FFFFE0" height="47.9375" rx="12.5" ry="12.5" style="stroke:#FF8C00;stroke-width:0.5;" width="131.0586" x="188.8901" y="660.8325"/><text fill="#000000" font-family="sans-serif" font-size="12" lengthAdjust="spacing" textLength="105.0469" x="198.8901" y="681.9712">Send envelope to</text><text fill="#000000" font-family="sans-serif" font-size="12" lengthAdjust="spacing" textLength="111.0586" x="198.8901" y="695.9399">connected client 1</text><rect fill="#FFFFE0" height="47.9375" rx="12.5" ry="12.5" style="stroke:#FF8C00;stroke-width:0.5;" width="131.0586" x="347.9487" y="660.8325"/><text fill="#000000" font-family="sans-serif" font-size="12" lengthAdjust="spacing" textLength="105.0469" x="357.9487" y="681.9712">Send envelope to</text><text fill="#000000" font-family="sans-serif" font-size="12" lengthAdjust="spacing" textLength="111.0586" x="357.9487" y="695.9399">connected client 2</text><rect fill="#FFFFE0" height="47.9375" rx="12.5" ry="12.5" style="stroke:#FF8C00;stroke-width:0.5;" width="132.4004" x="507.0073" y="660.8325"/><text fill="#000000" font-family="sans-serif" font-size="12" lengthAdjust="spacing" textLength="105.0469" x="517.0073" y="681.9712">Send envelope to</text><text fill="#000000" font-family="sans-serif" font-size="12" lengthAdjust="spacing" textLength="112.4004" x="517.0073" y="695.9399">connected client N</text><rect fill="#555555" height="6" rx="2.5" ry="2.5" style="stroke:#555555;stroke-width:1;" width="478.5176" x="174.8901" y="728.77"/><rect fill="#FFFFE0" height="47.9375" rx="12.5" ry="12.5" style="stroke:#FF8C00;stroke-width:0.5;" width="138.793" x="344.7524" y="754.77"/><text fill="#000000" font-family="sans-serif" font-size="12" lengthAdjust="spacing" textLength="118.793" x="354.7524" y="775.9087">Receive WebSocket</text><text fill="#000000" font-family="sans-serif" font-size="12" lengthAdjust="spacing" textLength="55.1484" x="354.7524" y="789.8774">envelope</text><rect fill="#FFFFE0" height="47.9375" rx="12.5" ry="12.5" style="stroke:#FF8C00;stroke-width:0.5;" width="126.0957" x="351.1011" y="822.7075"/><text fill="#000000" font-family="sans-serif" font-size="12" lengthAdjust="spacing" textLength="106.0957" x="361.1011" y="843.8462">Extract topic field</text><text fill="#000000" font-family="sans-serif" font-size="12" lengthAdjust="spacing" textLength="87.1523" x="361.1011" y="857.8149">from envelope</text><polygon fill="#FFFFE0" points="400.5842,890.645,427.7136,890.645,439.7136,902.645,427.7136,914.645,400.5842,914.645,388.5842,902.645,400.5842,890.645" style="stroke:#FF8C00;stroke-width:0.5;"/><text fill="#000000" font-family="sans-serif" font-size="11" lengthAdjust="spacing" textLength="27.1294" x="400.5842" y="906.4531">topic</text><rect fill="#FFFFE0" height="47.9375" rx="12.5" ry="12.5" style="stroke:#FF8C00;stroke-width:0.5;" width="144.1484" x="16" y="999.3604"/><text fill="#000000" font-family="sans-serif" font-size="12" lengthAdjust="spacing" textLength="124.1484" x="26" y="1020.499">Update sensor panel</text><text fill="#000000" font-family="sans-serif" font-size="12" lengthAdjust="spacing" textLength="106.3184" x="26" y="1034.4678">and ML indicators</text><rect fill="#FFFFE0" height="47.9375" rx="12.5" ry="12.5" style="stroke:#FF8C00;stroke-width:0.5;" width="116.7383" x="185.896" y="973.751"/><text fill="#000000" font-family="sans-serif" font-size="12" lengthAdjust="spacing" textLength="96.7383" x="195.896" y="994.8896">Update decision</text><text fill="#000000" font-family="sans-serif" font-size="12" lengthAdjust="spacing" textLength="87.0352" x="195.896" y="1008.8584">state indicator</text><rect fill="#FFFFE0" height="47.9375" rx="12.5" ry="12.5" style="stroke:#FF8C00;stroke-width:0.5;" width="140.0469" x="322.6343" y="973.751"/><text fill="#000000" font-family="sans-serif" font-size="12" lengthAdjust="spacing" textLength="74.4961" x="332.6343" y="994.8896">Update fault</text><text fill="#000000" font-family="sans-serif" font-size="12" lengthAdjust="spacing" textLength="120.0469" x="332.6343" y="1008.8584">interpretation panel</text><rect fill="#FFFFE0" height="47.9375" rx="12.5" ry="12.5" style="stroke:#FF8C00;stroke-width:0.5;" width="118.8418" x="488.6855" y="973.751"/><text fill="#000000" font-family="sans-serif" font-size="12" lengthAdjust="spacing" textLength="98.8418" x="498.6855" y="994.8896">Update machine</text><text fill="#000000" font-family="sans-serif" font-size="12" lengthAdjust="spacing" textLength="73.9805" x="498.6855" y="1008.8584">status panel</text><rect fill="#FFFFE0" height="47.9375" rx="12.5" ry="12.5" style="stroke:#FF8C00;stroke-width:0.5;" width="154.7305" x="639.9019" y="973.751"/><text fill="#000000" font-family="sans-serif" font-size="12" lengthAdjust="spacing" textLength="110.0273" x="649.9019" y="994.8896">Update supervisor</text><text fill="#000000" font-family="sans-serif" font-size="12" lengthAdjust="spacing" textLength="134.7305" x="649.9019" y="1008.8584">online/offline indicator</text><polygon fill="#FFFFE0" points="414.1489,1067.2979,414.1489,1067.2979,426.1489,1079.2979,414.1489,1091.2979,414.1489,1091.2979,402.1489,1079.2979,414.1489,1067.2979" style="stroke:#FF8C00;stroke-width:0.5;"/><rect fill="#FFFFE0" height="47.9375" rx="12.5" ry="12.5" style="stroke:#FF8C00;stroke-width:0.5;" width="133.209" x="347.5444" y="1111.2979"/><text fill="#000000" font-family="sans-serif" font-size="12" lengthAdjust="spacing" textLength="113.209" x="357.5444" y="1132.4365">Re-render affected</text><text fill="#000000" font-family="sans-serif" font-size="12" lengthAdjust="spacing" textLength="112.3301" x="357.5444" y="1146.4053">React components</text><ellipse cx="414.1489" cy="1190.2354" fill="none" rx="11" ry="11" style="stroke:#222222;stroke-width:1;"/><ellipse cx="414.1489" cy="1190.2354" fill="#222222" rx="6" ry="6" style="stroke:#222222;stroke-width:1;"/><line style="stroke:#181818;stroke-width:1;" x1="414.1489" x2="414.1489" y1="77.4297" y2="97.4297"/><polygon fill="#181818" points="410.1489,87.4297,414.1489,97.4297,418.1489,87.4297,414.1489,91.4297" style="stroke:#181818;stroke-width:1;"/><line style="stroke:#181818;stroke-width:1;" x1="414.1489" x2="414.1489" y1="117.4297" y2="137.4297"/><polygon fill="#181818" points="410.1489,127.4297,414.1489,137.4297,418.1489,127.4297,414.1489,131.4297" style="stroke:#181818;stroke-width:1;"/><line style="stroke:#181818;stroke-width:1;" x1="414.1489" x2="414.1489" y1="185.3672" y2="205.3672"/><polygon fill="#181818" points="410.1489,195.3672,414.1489,205.3672,418.1489,195.3672,414.1489,199.3672" style="stroke:#181818;stroke-width:1;"/><line style="stroke:#181818;stroke-width:1;" x1="330.3315" x2="330.3315" y1="429.9575" y2="464.9575"/><polygon fill="#181818" points="326.3315,454.9575,330.3315,464.9575,334.3315,454.9575,330.3315,458.9575" style="stroke:#181818;stroke-width:1;"/><line style="stroke:#181818;stroke-width:1;" x1="698.9614" x2="698.9614" y1="403.1841" y2="438.1841"/><polygon fill="#181818" points="694.9614,428.1841,698.9614,438.1841,702.9614,428.1841,698.9614,432.1841" style="stroke:#181818;stroke-width:1;"/><line style="stroke:#181818;stroke-width:1;" x1="388.5842" x2="142.6196" y1="271.3359" y2="271.3359"/><line style="stroke:#181818;stroke-width:1;" x1="142.6196" x2="142.6196" y1="271.3359" y2="342.4419"/><polygon fill="#181818" points="138.6196,332.4419,142.6196,342.4419,146.6196,332.4419,142.6196,336.4419" style="stroke:#181818;stroke-width:1;"/><text fill="#000000" font-family="sans-serif" font-size="11" lengthAdjust="spacing" textLength="77.8218" x="142.6196" y="309.6406">cycle/features</text><line style="stroke:#181818;stroke-width:1;" x1="439.7136" x2="698.9614" y1="271.3359" y2="271.3359"/><line style="stroke:#181818;stroke-width:1;" x1="698.9614" x2="698.9614" y1="271.3359" y2="355.2466"/><polygon fill="#181818" points="694.9614,345.2466,698.9614,355.2466,702.9614,345.2466,698.9614,349.2466" style="stroke:#181818;stroke-width:1;"/><text fill="#000000" font-family="sans-serif" font-size="11" lengthAdjust="spacing" textLength="71.7954" x="698.9614" y="309.6406">state / speed</text><text fill="#000000" font-family="sans-serif" font-size="11" lengthAdjust="spacing" textLength="54.1191" x="698.9614" y="322.4453">heartbeat</text><line style="stroke:#181818;stroke-width:1;" x1="330.3315" x2="330.3315" y1="271.3359" y2="368.0513"/><polygon fill="#181818" points="326.3315,358.0513,330.3315,368.0513,334.3315,358.0513,330.3315,362.0513" style="stroke:#181818;stroke-width:1;"/><text fill="#000000" font-family="sans-serif" font-size="11" lengthAdjust="spacing" textLength="50.1069" x="330.3315" y="304.6406">io_health</text><text fill="#000000" font-family="sans-serif" font-size="11" lengthAdjust="spacing" textLength="67.5522" x="330.3315" y="317.4453">ml_behavior</text><text fill="#000000" font-family="sans-serif" font-size="11" lengthAdjust="spacing" textLength="45.3428" x="330.3315" y="330.25">decision</text><line style="stroke:#181818;stroke-width:1;" x1="514.8472" x2="514.8472" y1="271.3359" y2="342.4419"/><polygon fill="#181818" points="510.8472,332.4419,514.8472,342.4419,518.8472,332.4419,514.8472,336.4419" style="stroke:#181818;stroke-width:1;"/><text fill="#000000" font-family="sans-serif" font-size="11" lengthAdjust="spacing" textLength="76.0278" x="514.8472" y="304.6406">interpretation</text><line style="stroke:#181818;stroke-width:1;" x1="142.6196" x2="142.6196" y1="390.3794" y2="534.895"/><line style="stroke:#181818;stroke-width:1;" x1="142.6196" x2="402.1489" y1="534.895" y2="534.895"/><polygon fill="#181818" points="392.1489,530.895,402.1489,534.895,392.1489,538.895,396.1489,534.895" style="stroke:#181818;stroke-width:1;"/><line style="stroke:#181818;stroke-width:1;" x1="698.9614" x2="698.9614" y1="486.1216" y2="534.895"/><line style="stroke:#181818;stroke-width:1;" x1="698.9614" x2="426.1489" y1="534.895" y2="534.895"/><polygon fill="#181818" points="436.1489,530.895,426.1489,534.895,436.1489,538.895,432.1489,534.895" style="stroke:#181818;stroke-width:1;"/><line style="stroke:#181818;stroke-width:1;" x1="330.3315" x2="330.3315" y1="512.895" y2="534.895"/><polygon fill="#181818" points="326.3315,524.895,330.3315,534.895,334.3315,524.895,330.3315,528.895" style="stroke:#181818;stroke-width:1;"/><line style="stroke:#181818;stroke-width:1;" x1="514.8472" x2="514.8472" y1="390.3794" y2="534.895"/><polygon fill="#181818" points="510.8472,524.895,514.8472,534.895,518.8472,524.895,514.8472,528.895" style="stroke:#181818;stroke-width:1;"/><line style="stroke:#181818;stroke-width:1;" x1="414.1489" x2="414.1489" y1="239.3359" y2="259.3359"/><polygon fill="#181818" points="410.1489,249.3359,414.1489,259.3359,418.1489,249.3359,414.1489,253.3359" style="stroke:#181818;stroke-width:1;"/><line style="stroke:#181818;stroke-width:1;" x1="414.1489" x2="414.1489" y1="546.895" y2="566.895"/><polygon fill="#181818" points="410.1489,556.895,414.1489,566.895,418.1489,556.895,414.1489,560.895" style="stroke:#181818;stroke-width:1;"/><line style="stroke:#181818;stroke-width:1;" x1="254.4194" x2="254.4194" y1="640.8325" y2="660.8325"/><polygon fill="#181818" points="250.4194,650.8325,254.4194,660.8325,258.4194,650.8325,254.4194,654.8325" style="stroke:#181818;stroke-width:1;"/><line style="stroke:#181818;stroke-width:1;" x1="413.478" x2="413.478" y1="640.8325" y2="660.8325"/><polygon fill="#181818" points="409.478,650.8325,413.478,660.8325,417.478,650.8325,413.478,654.8325" style="stroke:#181818;stroke-width:1;"/><line style="stroke:#181818;stroke-width:1;" x1="573.2075" x2="573.2075" y1="640.8325" y2="660.8325"/><polygon fill="#181818" points="569.2075,650.8325,573.2075,660.8325,577.2075,650.8325,573.2075,654.8325" style="stroke:#181818;stroke-width:1;"/><line style="stroke:#181818;stroke-width:1;" x1="254.4194" x2="254.4194" y1="708.77" y2="728.77"/><polygon fill="#181818" points="250.4194,718.77,254.4194,728.77,258.4194,718.77,254.4194,722.77" style="stroke:#181818;stroke-width:1;"/><line style="stroke:#181818;stroke-width:1;" x1="413.478" x2="413.478" y1="708.77" y2="728.77"/><polygon fill="#181818" points="409.478,718.77,413.478,728.77,417.478,718.77,413.478,722.77" style="stroke:#181818;stroke-width:1;"/><line style="stroke:#181818;stroke-width:1;" x1="573.2075" x2="573.2075" y1="708.77" y2="728.77"/><polygon fill="#181818" points="569.2075,718.77,573.2075,728.77,577.2075,718.77,573.2075,722.77" style="stroke:#181818;stroke-width:1;"/><line style="stroke:#181818;stroke-width:1;" x1="414.1489" x2="414.1489" y1="614.8325" y2="634.8325"/><polygon fill="#181818" points="410.1489,624.8325,414.1489,634.8325,418.1489,624.8325,414.1489,628.8325" style="stroke:#181818;stroke-width:1;"/><line style="stroke:#181818;stroke-width:1;" x1="414.1489" x2="414.1489" y1="734.77" y2="754.77"/><polygon fill="#181818" points="410.1489,744.77,414.1489,754.77,418.1489,744.77,414.1489,748.77" style="stroke:#181818;stroke-width:1;"/><line style="stroke:#181818;stroke-width:1;" x1="414.1489" x2="414.1489" y1="802.7075" y2="822.7075"/><polygon fill="#181818" points="410.1489,812.7075,414.1489,822.7075,418.1489,812.7075,414.1489,816.7075" style="stroke:#181818;stroke-width:1;"/><line style="stroke:#181818;stroke-width:1;" x1="388.5842" x2="88.0742" y1="902.645" y2="902.645"/><line style="stroke:#181818;stroke-width:1;" x1="88.0742" x2="88.0742" y1="902.645" y2="999.3604"/><polygon fill="#181818" points="84.0742,989.3604,88.0742,999.3604,92.0742,989.3604,88.0742,993.3604" style="stroke:#181818;stroke-width:1;"/><text fill="#000000" font-family="sans-serif" font-size="11" lengthAdjust="spacing" textLength="77.8218" x="88.0742" y="940.9497">cycle/features</text><text fill="#000000" font-family="sans-serif" font-size="11" lengthAdjust="spacing" textLength="50.1069" x="88.0742" y="953.7544">io_health</text><text fill="#000000" font-family="sans-serif" font-size="11" lengthAdjust="spacing" textLength="67.5522" x="88.0742" y="966.5591">ml_behavior</text><line style="stroke:#181818;stroke-width:1;" x1="439.7136" x2="717.2671" y1="902.645" y2="902.645"/><line style="stroke:#181818;stroke-width:1;" x1="717.2671" x2="717.2671" y1="902.645" y2="973.751"/><polygon fill="#181818" points="713.2671,963.751,717.2671,973.751,721.2671,963.751,717.2671,967.751" style="stroke:#181818;stroke-width:1;"/><text fill="#000000" font-family="sans-serif" font-size="11" lengthAdjust="spacing" textLength="95.0308" x="717.2671" y="940.9497">supervisor/status</text><line style="stroke:#181818;stroke-width:1;" x1="244.2651" x2="244.2651" y1="902.645" y2="973.751"/><polygon fill="#181818" points="240.2651,963.751,244.2651,973.751,248.2651,963.751,244.2651,967.751" style="stroke:#181818;stroke-width:1;"/><text fill="#000000" font-family="sans-serif" font-size="11" lengthAdjust="spacing" textLength="45.3428" x="244.2651" y="935.9497">decision</text><line style="stroke:#181818;stroke-width:1;" x1="414.1489" x2="414.1489" y1="914.645" y2="932.9385"/><line style="stroke:#181818;stroke-width:1;" x1="414.1489" x2="392.6577" y1="932.9385" y2="932.9385"/><line style="stroke:#181818;stroke-width:1;" x1="392.6577" x2="392.6577" y1="932.9385" y2="973.751"/><polygon fill="#181818" points="388.6577,963.751,392.6577,973.751,396.6577,963.751,392.6577,967.751" style="stroke:#181818;stroke-width:1;"/><text fill="#000000" font-family="sans-serif" font-size="11" lengthAdjust="spacing" textLength="76.0278" x="392.6577" y="941.9497">interpretation</text><line style="stroke:#181818;stroke-width:1;" x1="548.1064" x2="548.1064" y1="902.645" y2="973.751"/><polygon fill="#181818" points="544.1064,963.751,548.1064,973.751,552.1064,963.751,548.1064,967.751" style="stroke:#181818;stroke-width:1;"/><text fill="#000000" font-family="sans-serif" font-size="11" lengthAdjust="spacing" textLength="71.7954" x="548.1064" y="935.9497">state / speed</text><line style="stroke:#181818;stroke-width:1;" x1="88.0742" x2="88.0742" y1="1047.2979" y2="1079.2979"/><line style="stroke:#181818;stroke-width:1;" x1="88.0742" x2="402.1489" y1="1079.2979" y2="1079.2979"/><polygon fill="#181818" points="392.1489,1075.2979,402.1489,1079.2979,392.1489,1083.2979,396.1489,1079.2979" style="stroke:#181818;stroke-width:1;"/><line style="stroke:#181818;stroke-width:1;" x1="717.2671" x2="717.2671" y1="1021.6885" y2="1079.2979"/><line style="stroke:#181818;stroke-width:1;" x1="717.2671" x2="426.1489" y1="1079.2979" y2="1079.2979"/><polygon fill="#181818" points="436.1489,1075.2979,426.1489,1079.2979,436.1489,1083.2979,432.1489,1079.2979" style="stroke:#181818;stroke-width:1;"/><line style="stroke:#181818;stroke-width:1;" x1="244.2651" x2="244.2651" y1="1021.6885" y2="1079.2979"/><polygon fill="#181818" points="240.2651,1069.2979,244.2651,1079.2979,248.2651,1069.2979,244.2651,1073.2979" style="stroke:#181818;stroke-width:1;"/><line style="stroke:#181818;stroke-width:1;" x1="392.6577" x2="392.6577" y1="1021.6885" y2="1052.2979"/><line style="stroke:#181818;stroke-width:1;" x1="392.6577" x2="414.1489" y1="1052.2979" y2="1052.2979"/><line style="stroke:#181818;stroke-width:1;" x1="414.1489" x2="414.1489" y1="1052.2979" y2="1067.2979"/><polygon fill="#181818" points="410.1489,1057.2979,414.1489,1067.2979,418.1489,1057.2979,414.1489,1061.2979" style="stroke:#181818;stroke-width:1;"/><line style="stroke:#181818;stroke-width:1;" x1="548.1064" x2="548.1064" y1="1021.6885" y2="1079.2979"/><polygon fill="#181818" points="544.1064,1069.2979,548.1064,1079.2979,552.1064,1069.2979,548.1064,1073.2979" style="stroke:#181818;stroke-width:1;"/><line style="stroke:#181818;stroke-width:1;" x1="414.1489" x2="414.1489" y1="870.645" y2="890.645"/><polygon fill="#181818" points="410.1489,880.645,414.1489,890.645,418.1489,880.645,414.1489,884.645" style="stroke:#181818;stroke-width:1;"/><line style="stroke:#181818;stroke-width:1;" x1="414.1489" x2="414.1489" y1="1091.2979" y2="1111.2979"/><polygon fill="#181818" points="410.1489,1101.2979,414.1489,1111.2979,418.1489,1101.2979,414.1489,1105.2979" style="stroke:#181818;stroke-width:1;"/><line style="stroke:#181818;stroke-width:1;" x1="414.1489" x2="414.1489" y1="1159.2354" y2="1179.2354"/><polygon fill="#181818" points="410.1489,1169.2354,414.1489,1179.2354,418.1489,1169.2354,414.1489,1173.2354" style="stroke:#181818;stroke-width:1;"/><?plantuml-src dLDTRzf047pthzZ78gL2xID4aK98ggZvK4Ygg98bj3wluSHvpxfRaw0e_xrh6mZGf8hA2t0tCxktCniNbYiCM4A6PZ4BlkRyp3iVu6bkXP8aRW5en2wjhE0b0VsC3l1NTZQNt-ISV-hkVSWfT7TZ38lRW3oZv7LNahtG1t8Ziee-5FeHSDL8Y1L7y4ZPlJSB4XW5Zxd1A72XzU5qq-hOuamB9KbRoL4XoN5sCZez-tb-CpxkPoS9STwseMq91aa6rtSF3r1IZ3WZm13iacBAdW5v1R7EeWasenp4LzOCasHmcHEBBLRT2SYg8ZsEJrRC7BwqXxr4UoFuObR6KRyWb3fGxBNF6pm67RIIuP8BLp-FHob7ukZ3D4T1RGMZeaijCbpBM3-T4pgPfrowQKPpN5eVKix9s6WzVooy0uS-RF1wlbjadtn_TwM_jATL52gdj5HC1C7CqROV5WfL845vf_f606EqEcEMwNgw1ofwfuG-n8eeJrbV62JJKNsar-Adeh6AjgcxbMlXlwgyaOjrHM5fOpCUpyuozNrHDD_GyEiuR1BGcQLUdgcCXDh8JhQ8b-HyfHLVMZEFeF7bg3Lw03jMlQhjXG-Bhe7x9baRhlQTil7CP4IpOvpLASAtOOi7dA7bJxE-_nVhfdqejFtjRyF5vFRcuUzr64p8a8R_RH8fRqeqiJz_rj7heBhK5vQScbO4Ny8EwXDRaFBxSUxj-zYE6IfaSXebxVBw2Ypdrg3u43SPEjY0DVajvrt6jhn_1dXDBh1s-lHzIDV8kydTPvTevXgshd8T3tZRSFQxwzvdixlpWjtuJkXhqFyK08kYjJ_b2JKk6LzMdflLRLnHE_u0?></g></svg>